M48
; DRILL file {KiCad 9.0.6+1} date 2026-01-23T11:47:54+0000
; FORMAT={-:-/ absolute / metric / decimal}
; #@! TF.CreationDate,2026-01-23T11:47:54+00:00
; #@! TF.GenerationSoftware,Kicad,Pcbnew,9.0.6+1
; #@! TF.FileFunction,Plated,1,2,PTH
FMAT,2
METRIC
; #@! TA.AperFunction,Plated,PTH,ViaDrill
T1C0.250
; #@! TA.AperFunction,Plated,PTH,ComponentDrill
T2C0.500
; #@! TA.AperFunction,Plated,PTH,ComponentDrill
T3C1.000
%
G90
G05
T1
X170.3Y-143.8
X170.3Y-150.4
X172.0Y-144.8
X172.4Y-149.4
X172.6Y-144.2
X174.6Y-151.8
X175.618Y-143.218
X181.0Y-149.0
X181.2Y-146.375
X183.963Y-150.25
X184.8Y-144.8
X185.2Y-146.2
X185.562Y-151.75
X185.6Y-144.0
X187.6Y-144.6
X188.2Y-144.0
X189.2Y-143.4
X190.562Y-151.55
X191.2Y-143.8
X196.75Y-147.325
X197.25Y-152.355
X198.075Y-153.355
X198.12Y-147.825
X198.27Y-144.575
X198.32Y-149.825
X199.85Y-147.075
X199.982Y-146.082
X200.15Y-140.855
X200.5Y-147.1
T3
X174.62Y-150.1
X177.16Y-150.1
X179.7Y-150.1
X182.24Y-150.1
X186.79Y-142.0
X189.33Y-142.0
X191.87Y-142.0
X194.41Y-142.0
T2
G00X169.35Y-142.825
M15
G01X170.85Y-142.825
M16
G05
G00X169.35Y-151.375
M15
G01X170.85Y-151.375
M16
G05
G00X199.065Y-142.945
M15
G01X199.665Y-142.945
M16
G05
G00X199.065Y-151.205
M15
G01X199.665Y-151.205
M16
G05
G00X205.015Y-142.585
M15
G01X205.615Y-142.585
M16
G05
G00X205.015Y-151.565
M15
G01X205.615Y-151.565
M16
G05
M30
