%TF.GenerationSoftware,KiCad,Pcbnew,9.0.6+1*%
%TF.CreationDate,2026-01-23T11:48:29+00:00*%
%TF.ProjectId,ZSWatch-Dock,5a535761-7463-4682-9d44-6f636b2e6b69,0.1.1*%
%TF.SameCoordinates,Original*%
%TF.FileFunction,Copper,L1,Top*%
%TF.FilePolarity,Positive*%
%FSLAX46Y46*%
G04 Gerber Fmt 4.6, Leading zero omitted, Abs format (unit mm)*
G04 Created by KiCad (PCBNEW 9.0.6+1) date 2026-01-23 11:48:29*
%MOMM*%
%LPD*%
G01*
G04 APERTURE LIST*
G04 Aperture macros list*
%AMRoundRect*
0 Rectangle with rounded corners*
0 $1 Rounding radius*
0 $2 $3 $4 $5 $6 $7 $8 $9 X,Y pos of 4 corners*
0 Add a 4 corners polygon primitive as box body*
4,1,4,$2,$3,$4,$5,$6,$7,$8,$9,$2,$3,0*
0 Add four circle primitives for the rounded corners*
1,1,$1+$1,$2,$3*
1,1,$1+$1,$4,$5*
1,1,$1+$1,$6,$7*
1,1,$1+$1,$8,$9*
0 Add four rect primitives between the rounded corners*
20,1,$1+$1,$2,$3,$4,$5,0*
20,1,$1+$1,$4,$5,$6,$7,0*
20,1,$1+$1,$6,$7,$8,$9,0*
20,1,$1+$1,$8,$9,$2,$3,0*%
G04 Aperture macros list end*
%ADD10C,0.120000*%
%TA.AperFunction,NonConductor*%
%ADD11C,0.120000*%
%TD*%
%TA.AperFunction,SMDPad,CuDef*%
%ADD12RoundRect,0.250000X0.262500X0.450000X-0.262500X0.450000X-0.262500X-0.450000X0.262500X-0.450000X0*%
%TD*%
%TA.AperFunction,SMDPad,CuDef*%
%ADD13RoundRect,0.200000X0.200000X0.275000X-0.200000X0.275000X-0.200000X-0.275000X0.200000X-0.275000X0*%
%TD*%
%TA.AperFunction,SMDPad,CuDef*%
%ADD14R,0.700000X0.300000*%
%TD*%
%TA.AperFunction,HeatsinkPad*%
%ADD15O,1.400000X0.800000*%
%TD*%
%TA.AperFunction,ComponentPad*%
%ADD16R,1.700000X1.700000*%
%TD*%
%TA.AperFunction,ComponentPad*%
%ADD17C,1.700000*%
%TD*%
%TA.AperFunction,SMDPad,CuDef*%
%ADD18R,1.100000X0.300000*%
%TD*%
%TA.AperFunction,ComponentPad*%
%ADD19O,2.500000X1.000000*%
%TD*%
%TA.AperFunction,SMDPad,CuDef*%
%ADD20R,1.800000X0.500000*%
%TD*%
%TA.AperFunction,SMDPad,CuDef*%
%ADD21R,0.740000X2.400000*%
%TD*%
%TA.AperFunction,SMDPad,CuDef*%
%ADD22RoundRect,0.225000X0.250000X-0.225000X0.250000X0.225000X-0.250000X0.225000X-0.250000X-0.225000X0*%
%TD*%
%TA.AperFunction,SMDPad,CuDef*%
%ADD23RoundRect,0.150000X0.512500X0.150000X-0.512500X0.150000X-0.512500X-0.150000X0.512500X-0.150000X0*%
%TD*%
%TA.AperFunction,ViaPad*%
%ADD24C,0.450000*%
%TD*%
%TA.AperFunction,Conductor*%
%ADD25C,0.200000*%
%TD*%
%TA.AperFunction,Conductor*%
%ADD26C,0.170000*%
%TD*%
%TA.AperFunction,Conductor*%
%ADD27C,0.300000*%
%TD*%
G04 APERTURE END LIST*
D10*
D11*
X175219048Y-154363855D02*
X175295238Y-154363855D01*
X175295238Y-154363855D02*
X175371429Y-154401950D01*
X175371429Y-154401950D02*
X175409524Y-154440045D01*
X175409524Y-154440045D02*
X175447619Y-154516236D01*
X175447619Y-154516236D02*
X175485714Y-154668617D01*
X175485714Y-154668617D02*
X175485714Y-154859093D01*
X175485714Y-154859093D02*
X175447619Y-155011474D01*
X175447619Y-155011474D02*
X175409524Y-155087664D01*
X175409524Y-155087664D02*
X175371429Y-155125760D01*
X175371429Y-155125760D02*
X175295238Y-155163855D01*
X175295238Y-155163855D02*
X175219048Y-155163855D01*
X175219048Y-155163855D02*
X175142857Y-155125760D01*
X175142857Y-155125760D02*
X175104762Y-155087664D01*
X175104762Y-155087664D02*
X175066667Y-155011474D01*
X175066667Y-155011474D02*
X175028571Y-154859093D01*
X175028571Y-154859093D02*
X175028571Y-154668617D01*
X175028571Y-154668617D02*
X175066667Y-154516236D01*
X175066667Y-154516236D02*
X175104762Y-154440045D01*
X175104762Y-154440045D02*
X175142857Y-154401950D01*
X175142857Y-154401950D02*
X175219048Y-154363855D01*
X175828572Y-155087664D02*
X175866667Y-155125760D01*
X175866667Y-155125760D02*
X175828572Y-155163855D01*
X175828572Y-155163855D02*
X175790476Y-155125760D01*
X175790476Y-155125760D02*
X175828572Y-155087664D01*
X175828572Y-155087664D02*
X175828572Y-155163855D01*
X176628571Y-155163855D02*
X176171428Y-155163855D01*
X176400000Y-155163855D02*
X176400000Y-154363855D01*
X176400000Y-154363855D02*
X176323809Y-154478140D01*
X176323809Y-154478140D02*
X176247619Y-154554331D01*
X176247619Y-154554331D02*
X176171428Y-154592426D01*
X176971429Y-155087664D02*
X177009524Y-155125760D01*
X177009524Y-155125760D02*
X176971429Y-155163855D01*
X176971429Y-155163855D02*
X176933333Y-155125760D01*
X176933333Y-155125760D02*
X176971429Y-155087664D01*
X176971429Y-155087664D02*
X176971429Y-155163855D01*
X177771428Y-155163855D02*
X177314285Y-155163855D01*
X177542857Y-155163855D02*
X177542857Y-154363855D01*
X177542857Y-154363855D02*
X177466666Y-154478140D01*
X177466666Y-154478140D02*
X177390476Y-154554331D01*
X177390476Y-154554331D02*
X177314285Y-154592426D01*
D12*
%TO.P,R418,1*%
%TO.N,V_{BUS}*%
X189337500Y-148850000D03*
%TO.P,R418,2*%
%TO.N,Net-(R418-Pad2)*%
X187512500Y-148850000D03*
%TD*%
D13*
%TO.P,R409,1*%
%TO.N,Net-(X403-CC2)*%
X200975000Y-140855000D03*
%TO.P,R409,2*%
%TO.N,GND*%
X199325000Y-140855000D03*
%TD*%
D14*
%TO.P,X403,A1,GND*%
%TO.N,GND*%
X197455000Y-149825000D03*
%TO.P,X403,A2,TX1+*%
%TO.N,unconnected-(X403-TX1+-PadA2)*%
X197455000Y-149325000D03*
%TO.P,X403,A3,TX1-*%
%TO.N,unconnected-(X403-TX1--PadA3)*%
X197455000Y-148825000D03*
%TO.P,X403,A4,VBUS*%
%TO.N,V_{BUS}*%
X197455000Y-148325000D03*
%TO.P,X403,A5,CC1*%
%TO.N,Net-(X403-CC1)*%
X197455000Y-147825000D03*
%TO.P,X403,A6,D+*%
%TO.N,USB-D+*%
X197455000Y-147325000D03*
%TO.P,X403,A7,D-*%
%TO.N,USB-D-*%
X197455000Y-146825000D03*
%TO.P,X403,A8,SBU1*%
%TO.N,unconnected-(X403-SBU1-PadA8)*%
X197455000Y-146325000D03*
%TO.P,X403,A9,VBUS*%
%TO.N,V_{BUS}*%
X197455000Y-145825000D03*
%TO.P,X403,A10,RX2-*%
%TO.N,unconnected-(X403-RX2--PadA10)*%
X197455000Y-145325000D03*
%TO.P,X403,A11,RX2+*%
%TO.N,unconnected-(X403-RX2+-PadA11)*%
X197455000Y-144825000D03*
%TO.P,X403,A12,GND*%
%TO.N,GND*%
X197455000Y-144325000D03*
%TO.P,X403,B1,GND*%
X199155000Y-144575000D03*
%TO.P,X403,B2,TX2+*%
%TO.N,unconnected-(X403-TX2+-PadB2)*%
X199155000Y-145075000D03*
%TO.P,X403,B3,TX2-*%
%TO.N,unconnected-(X403-TX2--PadB3)*%
X199155000Y-145575000D03*
%TO.P,X403,B4,VBUS*%
%TO.N,V_{BUS}*%
X199155000Y-146075000D03*
%TO.P,X403,B5,CC2*%
%TO.N,Net-(X403-CC2)*%
X199155000Y-146575000D03*
%TO.P,X403,B6,D+*%
%TO.N,USB-D+*%
X199155000Y-147075000D03*
%TO.P,X403,B7,D-*%
%TO.N,USB-D-*%
X199155000Y-147575000D03*
%TO.P,X403,B8,SBU2*%
%TO.N,unconnected-(X403-SBU2-PadB8)*%
X199155000Y-148075000D03*
%TO.P,X403,B9,VBUS*%
%TO.N,V_{BUS}*%
X199155000Y-148575000D03*
%TO.P,X403,B10,RX1-*%
%TO.N,unconnected-(X403-RX1--PadB10)*%
X199155000Y-149075000D03*
%TO.P,X403,B11,RX1+*%
%TO.N,unconnected-(X403-RX1+-PadB11)*%
X199155000Y-149575000D03*
%TO.P,X403,B12,GND*%
%TO.N,GND*%
X199155000Y-150075000D03*
D15*
%TO.P,X403,S1,SHIELD*%
X205315000Y-151565000D03*
X199365000Y-151205000D03*
X199365000Y-142945000D03*
X205315000Y-142585000D03*
%TD*%
D13*
%TO.P,R410,1*%
%TO.N,GND*%
X198875000Y-153355000D03*
%TO.P,R410,2*%
%TO.N,Net-(X403-CC1)*%
X197225000Y-153355000D03*
%TD*%
D16*
%TO.P,J1,1,Pin_1*%
%TO.N,GND*%
X174620000Y-150100000D03*
D17*
%TO.P,J1,2,Pin_2*%
%TO.N,RxD_{LV}*%
X177160000Y-150100000D03*
%TO.P,J1,3,Pin_3*%
%TO.N,TxD_{LV}*%
X179700000Y-150100000D03*
%TO.P,J1,4,Pin_4*%
%TO.N,RESETn_{LV}*%
X182240000Y-150100000D03*
%TD*%
D18*
%TO.P,X404,A1,GND*%
%TO.N,GND*%
X170300000Y-149850000D03*
%TO.P,X404,A2,TX1+*%
%TO.N,RxD_{LV}*%
X170300000Y-149350000D03*
%TO.P,X404,A3,TX1-*%
%TO.N,TxD_{LV}*%
X170300000Y-148850000D03*
%TO.P,X404,A4,VBUS*%
%TO.N,Net-(R418-Pad2)*%
X170300000Y-148350000D03*
%TO.P,X404,A5,CC1*%
%TO.N,unconnected-(X404-CC1-PadA5)*%
X170300000Y-147850000D03*
%TO.P,X404,A6,D+*%
%TO.N,USB-D+*%
X170300000Y-147350000D03*
%TO.P,X404,A7,D-*%
%TO.N,USB-D-*%
X170300000Y-146850000D03*
%TO.P,X404,A8,SBU1*%
%TO.N,RESETn_{LV}*%
X170300000Y-146350000D03*
%TO.P,X404,A9,VBUS*%
%TO.N,Net-(R418-Pad2)*%
X170300000Y-145850000D03*
%TO.P,X404,A10,RX2-*%
%TO.N,SWDIO_{LV}*%
X170300000Y-145350000D03*
%TO.P,X404,A11,RX2+*%
%TO.N,SWDCLK_{LV}*%
X170300000Y-144850000D03*
%TO.P,X404,A12,GND*%
%TO.N,GND*%
X170300000Y-144350000D03*
%TO.P,X404,B1,GND*%
X168500000Y-144350000D03*
%TO.P,X404,B2,TX2+*%
%TO.N,unconnected-(X404-TX2+-PadB2)*%
X168500000Y-144850000D03*
%TO.P,X404,B3,TX2-*%
%TO.N,unconnected-(X404-TX2--PadB3)*%
X168500000Y-145350000D03*
%TO.P,X404,B4,VBUS*%
%TO.N,Net-(R418-Pad2)*%
X168500000Y-145850000D03*
%TO.P,X404,B5,CC2*%
%TO.N,unconnected-(X404-CC2-PadB5)*%
X168500000Y-146350000D03*
%TO.P,X404,B6,D+*%
%TO.N,unconnected-(X404-D+-PadB6)*%
X168500000Y-146825000D03*
%TO.P,X404,B7,D-*%
%TO.N,unconnected-(X404-D--PadB7)*%
X168500000Y-147375000D03*
%TO.P,X404,B8,SBU2*%
%TO.N,unconnected-(X404-SBU2-PadB8)*%
X168500000Y-147850000D03*
%TO.P,X404,B9,VBUS*%
%TO.N,Net-(R418-Pad2)*%
X168500000Y-148350000D03*
%TO.P,X404,B10,RX1-*%
%TO.N,unconnected-(X404-RX1--PadB10)*%
X168500000Y-148850000D03*
%TO.P,X404,B11,RX1+*%
%TO.N,unconnected-(X404-RX1+-PadB11)*%
X168500000Y-149350000D03*
%TO.P,X404,B12,GND*%
%TO.N,GND*%
X168500000Y-149850000D03*
D19*
%TO.P,X404,S1,SHIELD*%
X170100000Y-142825000D03*
D20*
X168700000Y-143525000D03*
X168700000Y-150675000D03*
D19*
X170100000Y-151375000D03*
%TD*%
D21*
%TO.P,X401,1,VTref*%
%TO.N,+1V8*%
X182157000Y-140050000D03*
%TO.P,X401,2,SWDIO/TMS*%
%TO.N,SWDIO_{LV}*%
X182157000Y-143950000D03*
%TO.P,X401,3,GND*%
%TO.N,GND*%
X180887000Y-140050000D03*
%TO.P,X401,4,SWCLK/TCK*%
%TO.N,SWDCLK_{LV}*%
X180887000Y-143950000D03*
%TO.P,X401,5,GND*%
%TO.N,GND*%
X179617000Y-140050000D03*
%TO.P,X401,6,SWO/TDO*%
%TO.N,unconnected-(X401-SWO{slash}TDO-Pad6)*%
X179617000Y-143950000D03*
%TO.P,X401,7,KEY*%
%TO.N,unconnected-(X401-KEY-Pad7)*%
X178347000Y-140050000D03*
%TO.P,X401,8,NC/TDI*%
%TO.N,unconnected-(X401-NC{slash}TDI-Pad8)*%
X178347000Y-143950000D03*
%TO.P,X401,9,GNDDetect*%
%TO.N,unconnected-(X401-GNDDetect-Pad9)*%
X177077000Y-140050000D03*
%TO.P,X401,10,~{RESET}*%
%TO.N,RESETn_{LV}*%
X177077000Y-143950000D03*
%TD*%
D16*
%TO.P,J402,1,Pin_1*%
%TO.N,RESETn_{LV}*%
X186790000Y-142000000D03*
D17*
%TO.P,J402,2,Pin_2*%
%TO.N,+1V8*%
X189330000Y-142000000D03*
%TO.P,J402,3,Pin_3*%
%TO.N,SWDIO_{LV}*%
X191870000Y-142000000D03*
%TO.P,J402,4,Pin_4*%
%TO.N,SWDCLK_{LV}*%
X194410000Y-142000000D03*
%TD*%
D22*
%TO.P,C402,1*%
%TO.N,+1V8*%
X185562500Y-152550000D03*
%TO.P,C402,2*%
%TO.N,GND*%
X185562500Y-151000000D03*
%TD*%
D23*
%TO.P,IC401,1,IN*%
%TO.N,V_{BUS}*%
X189600000Y-152500000D03*
%TO.P,IC401,2,GND*%
%TO.N,GND*%
X189600000Y-151550000D03*
%TO.P,IC401,3,EN*%
%TO.N,V_{BUS}*%
X189600000Y-150600000D03*
%TO.P,IC401,4,NC*%
%TO.N,unconnected-(IC401-NC-Pad4)*%
X187325000Y-150600000D03*
%TO.P,IC401,5,OUT*%
%TO.N,+1V8*%
X187325000Y-152500000D03*
%TD*%
D24*
%TO.N,GND*%
X189200000Y-143400000D03*
X172000000Y-144800000D03*
X191200000Y-143800000D03*
X172400000Y-149400000D03*
X185562500Y-151750000D03*
X190562500Y-151550000D03*
X170300000Y-150400000D03*
X174600000Y-151800000D03*
X198270000Y-144575000D03*
X200150000Y-140855000D03*
X170300000Y-143800000D03*
X198075000Y-153355000D03*
X198320000Y-149825000D03*
%TO.N,+1V8*%
X183962500Y-150250000D03*
X185200000Y-146200000D03*
%TO.N,USB-D+*%
X196750000Y-147325000D03*
X199850000Y-147075000D03*
%TO.N,SWDIO_{LV}*%
X185600000Y-144000000D03*
X188200000Y-144000000D03*
%TO.N,SWDCLK_{LV}*%
X187600000Y-144600000D03*
X184800000Y-144800000D03*
X175618199Y-143218199D03*
X172600000Y-144200000D03*
%TO.N,V_{BUS}*%
X199981801Y-146081801D03*
X200500000Y-147100000D03*
%TO.N,RESETn_{LV}*%
X181200000Y-146375000D03*
X181000000Y-149000000D03*
%TO.N,Net-(X403-CC1)*%
X197250000Y-152355000D03*
X198120000Y-147825000D03*
%TD*%
D25*
%TO.N,GND*%
X198875000Y-153355000D02*
X198075000Y-153355000D01*
X168500000Y-144350000D02*
X168500000Y-143725000D01*
X180887000Y-140050000D02*
X179617000Y-140050000D01*
X199325000Y-140855000D02*
X200150000Y-140855000D01*
X168500000Y-150475000D02*
X168700000Y-150675000D01*
X185562500Y-151000000D02*
X185562500Y-151750000D01*
X168500000Y-149850000D02*
X170300000Y-149850000D01*
X197455000Y-149825000D02*
X198320000Y-149825000D01*
X170300000Y-144350000D02*
X170300000Y-143800000D01*
X198020000Y-144325000D02*
X198270000Y-144575000D01*
X168500000Y-149850000D02*
X168500000Y-150475000D01*
X170300000Y-149850000D02*
X170300000Y-150400000D01*
X190562500Y-151550000D02*
X189662500Y-151550000D01*
X197455000Y-144325000D02*
X198020000Y-144325000D01*
X198570000Y-150075000D02*
X199155000Y-150075000D01*
X168500000Y-143725000D02*
X168700000Y-143525000D01*
X198270000Y-144575000D02*
X199155000Y-144575000D01*
X168500000Y-144350000D02*
X170300000Y-144350000D01*
X198320000Y-149825000D02*
X198570000Y-150075000D01*
%TO.N,+1V8*%
X185562500Y-152550000D02*
X183962500Y-150950000D01*
X187325000Y-152500000D02*
X186337500Y-152500000D01*
X187380000Y-140050000D02*
X189330000Y-142000000D01*
X182157000Y-140050000D02*
X187380000Y-140050000D01*
X183962500Y-150950000D02*
X183962500Y-150250000D01*
X186337500Y-152500000D02*
X186287500Y-152550000D01*
X185200000Y-146130000D02*
X189330000Y-142000000D01*
X186287500Y-152550000D02*
X185562500Y-152550000D01*
X185200000Y-146200000D02*
X185200000Y-146130000D01*
%TO.N,USB-D-*%
X197455000Y-146825000D02*
X171150001Y-146825000D01*
X171150001Y-146825000D02*
X171125001Y-146850000D01*
D26*
X198670000Y-147575000D02*
X199155000Y-147575000D01*
D25*
X171125001Y-146850000D02*
X170300000Y-146850000D01*
D26*
X197920000Y-146825000D02*
X198670000Y-147575000D01*
X197455000Y-146825000D02*
X197920000Y-146825000D01*
D25*
%TO.N,USB-D+*%
X171150001Y-147325000D02*
X197455000Y-147325000D01*
D26*
X199155000Y-147075000D02*
X199850000Y-147075000D01*
D25*
X171125001Y-147350000D02*
X171150001Y-147325000D01*
D26*
X197455000Y-147325000D02*
X196750000Y-147325000D01*
D25*
X170300000Y-147350000D02*
X171125001Y-147350000D01*
%TO.N,SWDIO_{LV}*%
X182157000Y-144780000D02*
X182157000Y-143950000D01*
X180837000Y-141800000D02*
X182157000Y-143120000D01*
X172850000Y-145350000D02*
X176400000Y-141800000D01*
X170300000Y-145350000D02*
X172850000Y-145350000D01*
X182157000Y-143950000D02*
X182207000Y-144000000D01*
X188200000Y-144000000D02*
X189870000Y-144000000D01*
X182157000Y-143120000D02*
X182157000Y-143950000D01*
X182207000Y-144000000D02*
X185600000Y-144000000D01*
X189870000Y-144000000D02*
X191870000Y-142000000D01*
X176400000Y-141800000D02*
X180837000Y-141800000D01*
%TO.N,SWDCLK_{LV}*%
X181561000Y-145376000D02*
X184224000Y-145376000D01*
X184224000Y-145376000D02*
X184800000Y-144800000D01*
X180067000Y-142300000D02*
X180887000Y-143120000D01*
X171150000Y-144850000D02*
X170300000Y-144850000D01*
X176312398Y-142524000D02*
X176876000Y-142524000D01*
X180887000Y-143950000D02*
X180887000Y-144702000D01*
X175618199Y-143218199D02*
X176312398Y-142524000D01*
X176876000Y-142524000D02*
X177100000Y-142300000D01*
X172600000Y-144200000D02*
X171800000Y-144200000D01*
X180887000Y-144702000D02*
X181561000Y-145376000D01*
X177100000Y-142300000D02*
X180067000Y-142300000D01*
X180887000Y-143120000D02*
X180887000Y-143950000D01*
X187600000Y-144600000D02*
X191810000Y-144600000D01*
X171800000Y-144200000D02*
X171150000Y-144850000D01*
X191810000Y-144600000D02*
X194410000Y-142000000D01*
%TO.N,Net-(R418-Pad2)*%
X187512500Y-148850000D02*
X187012500Y-148350000D01*
X168500000Y-145850000D02*
X169050000Y-145850000D01*
X169400000Y-148102000D02*
X169152000Y-148350000D01*
D27*
X168500000Y-148350000D02*
X170300000Y-148350000D01*
D25*
X169400000Y-146200000D02*
X169400000Y-148102000D01*
D27*
X187012500Y-148350000D02*
X170300000Y-148350000D01*
D25*
X169050000Y-145850000D02*
X169400000Y-146200000D01*
D27*
X168500000Y-145850000D02*
X170300000Y-145850000D01*
D25*
X169152000Y-148350000D02*
X168500000Y-148350000D01*
%TO.N,V_{BUS}*%
X191225000Y-151050000D02*
X191225000Y-151950000D01*
X190775000Y-150600000D02*
X191225000Y-151050000D01*
X189662500Y-150600000D02*
X189336500Y-150600000D01*
D27*
X199805000Y-148575000D02*
X200500000Y-147880000D01*
X198475000Y-146075000D02*
X199155000Y-146075000D01*
D25*
X189600000Y-150600000D02*
X190775000Y-150600000D01*
D27*
X198575000Y-148575000D02*
X198325000Y-148325000D01*
D25*
X189600000Y-149112500D02*
X189337500Y-148850000D01*
D27*
X197455000Y-148325000D02*
X189800000Y-148325000D01*
D25*
X189600000Y-152500000D02*
X188937500Y-152500000D01*
X189662500Y-152500000D02*
X189310500Y-152500000D01*
D27*
X189600000Y-150600000D02*
X189600000Y-149112500D01*
X199155000Y-148575000D02*
X199805000Y-148575000D01*
D25*
X190675000Y-152500000D02*
X189600000Y-152500000D01*
D27*
X198225000Y-145825000D02*
X198475000Y-146075000D01*
D25*
X199975000Y-146075000D02*
X199981801Y-146081801D01*
D27*
X198325000Y-148325000D02*
X197455000Y-148325000D01*
X199155000Y-148575000D02*
X198575000Y-148575000D01*
D25*
X191225000Y-151950000D02*
X190675000Y-152500000D01*
D27*
X200500000Y-147880000D02*
X200500000Y-147100000D01*
D25*
X199161801Y-146081801D02*
X199155000Y-146075000D01*
D27*
X199155000Y-146075000D02*
X199975000Y-146075000D01*
X197455000Y-145825000D02*
X198225000Y-145825000D01*
D25*
%TO.N,RESETn_{LV}*%
X175450000Y-143950000D02*
X177077000Y-143950000D01*
X177077000Y-143950000D02*
X177077000Y-144780000D01*
X178672000Y-146375000D02*
X181200000Y-146375000D01*
X181200000Y-146375000D02*
X184225000Y-146375000D01*
X186790000Y-143810000D02*
X186790000Y-142000000D01*
X181140000Y-149000000D02*
X182240000Y-150100000D01*
X173050000Y-146350000D02*
X175450000Y-143950000D01*
X177077000Y-144780000D02*
X178672000Y-146375000D01*
X181000000Y-149000000D02*
X181140000Y-149000000D01*
X170300000Y-146350000D02*
X173050000Y-146350000D01*
X184225000Y-146375000D02*
X186790000Y-143810000D01*
%TO.N,TxD_{LV}*%
X178450000Y-148850000D02*
X170300000Y-148850000D01*
X179700000Y-150100000D02*
X178450000Y-148850000D01*
%TO.N,RxD_{LV}*%
X170300000Y-149350000D02*
X171150000Y-149350000D01*
X172000000Y-151200000D02*
X173200000Y-152400000D01*
X174860000Y-152400000D02*
X177160000Y-150100000D01*
X172000000Y-150200000D02*
X172000000Y-151200000D01*
X173200000Y-152400000D02*
X174860000Y-152400000D01*
X171150000Y-149350000D02*
X172000000Y-150200000D01*
%TO.N,Net-(X403-CC2)*%
X199155000Y-146575000D02*
X200125000Y-146575000D01*
X200125000Y-146575000D02*
X200975000Y-145725000D01*
X200975000Y-145725000D02*
X200975000Y-140855000D01*
%TO.N,Net-(X403-CC1)*%
X198120000Y-147825000D02*
X197455000Y-147825000D01*
X197250000Y-153330000D02*
X197250000Y-152355000D01*
X197225000Y-153355000D02*
X197250000Y-153330000D01*
%TD*%
%TA.AperFunction,Conductor*%
%TO.N,GND*%
G36*
X205706922Y-137996255D02*
G01*
X205721328Y-137997878D01*
X205819523Y-138008942D01*
X205846585Y-138015118D01*
X205946931Y-138050229D01*
X205971946Y-138062276D01*
X206061961Y-138118835D01*
X206083670Y-138136147D01*
X206158841Y-138211316D01*
X206176153Y-138233023D01*
X206232714Y-138323033D01*
X206244762Y-138348050D01*
X206279874Y-138448386D01*
X206286054Y-138475456D01*
X206298720Y-138587835D01*
X206299500Y-138601723D01*
X206299500Y-141727958D01*
X206279815Y-141794997D01*
X206227011Y-141840752D01*
X206157853Y-141850696D01*
X206106610Y-141831061D01*
X206041314Y-141787432D01*
X206041307Y-141787428D01*
X205877520Y-141719586D01*
X205877512Y-141719584D01*
X205703646Y-141685000D01*
X205565000Y-141685000D01*
X205565000Y-142335000D01*
X205065000Y-142335000D01*
X205065000Y-141685000D01*
X204926353Y-141685000D01*
X204752487Y-141719584D01*
X204752479Y-141719586D01*
X204588692Y-141787428D01*
X204588683Y-141787433D01*
X204441283Y-141885923D01*
X204441279Y-141885926D01*
X204315926Y-142011279D01*
X204315923Y-142011283D01*
X204217433Y-142158683D01*
X204217428Y-142158693D01*
X204149587Y-142322476D01*
X204149584Y-142322483D01*
X204147096Y-142335000D01*
X204965272Y-142335000D01*
X204873386Y-142373060D01*
X204803060Y-142443386D01*
X204765000Y-142535272D01*
X204765000Y-142634728D01*
X204803060Y-142726614D01*
X204873386Y-142796940D01*
X204965272Y-142835000D01*
X204147096Y-142835000D01*
X204149584Y-142847516D01*
X204149587Y-142847523D01*
X204217428Y-143011306D01*
X204217433Y-143011316D01*
X204315923Y-143158716D01*
X204315926Y-143158720D01*
X204441279Y-143284073D01*
X204441283Y-143284076D01*
X204588683Y-143382566D01*
X204588692Y-143382571D01*
X204752479Y-143450413D01*
X204752487Y-143450415D01*
X204926353Y-143484999D01*
X204926357Y-143485000D01*
X205065000Y-143485000D01*
X205065000Y-142835000D01*
X205565000Y-142835000D01*
X205565000Y-143485000D01*
X205703643Y-143485000D01*
X205703646Y-143484999D01*
X205877512Y-143450415D01*
X205877520Y-143450413D01*
X206041307Y-143382571D01*
X206041316Y-143382566D01*
X206106609Y-143338939D01*
X206173286Y-143318061D01*
X206240667Y-143336545D01*
X206287357Y-143388524D01*
X206299500Y-143442041D01*
X206299500Y-150707958D01*
X206279815Y-150774997D01*
X206227011Y-150820752D01*
X206157853Y-150830696D01*
X206106610Y-150811061D01*
X206041314Y-150767432D01*
X206041307Y-150767428D01*
X205877520Y-150699586D01*
X205877512Y-150699584D01*
X205703646Y-150665000D01*
X205565000Y-150665000D01*
X205565000Y-151315000D01*
X205065000Y-151315000D01*
X205065000Y-150665000D01*
X204926353Y-150665000D01*
X204752487Y-150699584D01*
X204752479Y-150699586D01*
X204588692Y-150767428D01*
X204588683Y-150767433D01*
X204441283Y-150865923D01*
X204441279Y-150865926D01*
X204315926Y-150991279D01*
X204315923Y-150991283D01*
X204217433Y-151138683D01*
X204217428Y-151138693D01*
X204149587Y-151302476D01*
X204149584Y-151302483D01*
X204147096Y-151315000D01*
X204965272Y-151315000D01*
X204873386Y-151353060D01*
X204803060Y-151423386D01*
X204765000Y-151515272D01*
X204765000Y-151614728D01*
X204803060Y-151706614D01*
X204873386Y-151776940D01*
X204965272Y-151815000D01*
X204147096Y-151815000D01*
X204149584Y-151827516D01*
X204149587Y-151827523D01*
X204217428Y-151991306D01*
X204217433Y-151991316D01*
X204315923Y-152138716D01*
X204315926Y-152138720D01*
X204441279Y-152264073D01*
X204441283Y-152264076D01*
X204588683Y-152362566D01*
X204588692Y-152362571D01*
X204752479Y-152430413D01*
X204752487Y-152430415D01*
X204926353Y-152464999D01*
X204926357Y-152465000D01*
X205065000Y-152465000D01*
X205065000Y-151815000D01*
X205565000Y-151815000D01*
X205565000Y-152465000D01*
X205703643Y-152465000D01*
X205703646Y-152464999D01*
X205877512Y-152430415D01*
X205877520Y-152430413D01*
X206041307Y-152362571D01*
X206041316Y-152362566D01*
X206106609Y-152318939D01*
X206173286Y-152298061D01*
X206240667Y-152316545D01*
X206287357Y-152368524D01*
X206299500Y-152422041D01*
X206299500Y-155543038D01*
X206298720Y-155556922D01*
X206286033Y-155669515D01*
X206279855Y-155696585D01*
X206244745Y-155796925D01*
X206232697Y-155821943D01*
X206176140Y-155911953D01*
X206158827Y-155933662D01*
X206083662Y-156008827D01*
X206061953Y-156026140D01*
X205971943Y-156082697D01*
X205946925Y-156094745D01*
X205846585Y-156129855D01*
X205819515Y-156136033D01*
X205726256Y-156146540D01*
X205706915Y-156148720D01*
X205693047Y-156149500D01*
X205673071Y-156149500D01*
X205673067Y-156149501D01*
X205658629Y-156149503D01*
X205658629Y-156149504D01*
X168406972Y-156154524D01*
X168393071Y-156153744D01*
X168280479Y-156141058D01*
X168253410Y-156134880D01*
X168153071Y-156099771D01*
X168128053Y-156087723D01*
X168038038Y-156031164D01*
X168016329Y-156013852D01*
X167941158Y-155938683D01*
X167923846Y-155916976D01*
X167867285Y-155826966D01*
X167855238Y-155801953D01*
X167820124Y-155701610D01*
X167813945Y-155674543D01*
X167813378Y-155669515D01*
X167801280Y-155562162D01*
X167800500Y-155548275D01*
X167800500Y-155358878D01*
X174833984Y-155358878D01*
X177961928Y-155358878D01*
X177961928Y-154168832D01*
X174833984Y-154168832D01*
X174833984Y-155358878D01*
X167800500Y-155358878D01*
X167800500Y-151549000D01*
X167820185Y-151481961D01*
X167872989Y-151436206D01*
X167924500Y-151425000D01*
X168238590Y-151425000D01*
X168305629Y-151444685D01*
X168351384Y-151497489D01*
X168360207Y-151524809D01*
X168388427Y-151666681D01*
X168388430Y-151666693D01*
X168463807Y-151848671D01*
X168463814Y-151848684D01*
X168573248Y-152012462D01*
X168573251Y-152012466D01*
X168712533Y-152151748D01*
X168712537Y-152151751D01*
X168876315Y-152261185D01*
X168876328Y-152261192D01*
X169058306Y-152336569D01*
X169058318Y-152336572D01*
X169251504Y-152374999D01*
X169251508Y-152375000D01*
X169850000Y-152375000D01*
X169850000Y-151625000D01*
X170350000Y-151625000D01*
X170350000Y-152375000D01*
X170948492Y-152375000D01*
X170948495Y-152374999D01*
X171141681Y-152336572D01*
X171141693Y-152336569D01*
X171323671Y-152261192D01*
X171323684Y-152261185D01*
X171487462Y-152151751D01*
X171487466Y-152151748D01*
X171626748Y-152012466D01*
X171626751Y-152012462D01*
X171736185Y-151848684D01*
X171736192Y-151848671D01*
X171811569Y-151666693D01*
X171811570Y-151666689D01*
X171822093Y-151613788D01*
X171854478Y-151551876D01*
X171915194Y-151517302D01*
X171984963Y-151521041D01*
X172031392Y-151550297D01*
X173001759Y-152520664D01*
X173001762Y-152520668D01*
X173072266Y-152591172D01*
X173136365Y-152617721D01*
X173155145Y-152625500D01*
X174815143Y-152625500D01*
X174815145Y-152625501D01*
X174904855Y-152625501D01*
X174963460Y-152601225D01*
X174987736Y-152591170D01*
X175051170Y-152527736D01*
X175051170Y-152527735D01*
X175068608Y-152510297D01*
X175068610Y-152510294D01*
X176580298Y-150998605D01*
X176641619Y-150965122D01*
X176711311Y-150970106D01*
X176715429Y-150971727D01*
X176845250Y-151025500D01*
X176875457Y-151038012D01*
X177003021Y-151063386D01*
X177063917Y-151075499D01*
X177063920Y-151075500D01*
X177063922Y-151075500D01*
X177256080Y-151075500D01*
X177256081Y-151075499D01*
X177444543Y-151038012D01*
X177622073Y-150964477D01*
X177781845Y-150857720D01*
X177917720Y-150721845D01*
X178024477Y-150562073D01*
X178098012Y-150384543D01*
X178135500Y-150196078D01*
X178135500Y-150003922D01*
X178135500Y-150003919D01*
X178135499Y-150003917D01*
X178124575Y-149949000D01*
X178098012Y-149815457D01*
X178098010Y-149815452D01*
X178024479Y-149637931D01*
X178024478Y-149637929D01*
X178003744Y-149606899D01*
X177917720Y-149478155D01*
X177917717Y-149478151D01*
X177781845Y-149342279D01*
X177722463Y-149302602D01*
X177677658Y-149248990D01*
X177668951Y-149179665D01*
X177699105Y-149116638D01*
X177758548Y-149079918D01*
X177791354Y-149075500D01*
X178305233Y-149075500D01*
X178372272Y-149095185D01*
X178392914Y-149111819D01*
X178801392Y-149520297D01*
X178834877Y-149581620D01*
X178829893Y-149651312D01*
X178828272Y-149655430D01*
X178761989Y-149815452D01*
X178761986Y-149815464D01*
X178724500Y-150003917D01*
X178724500Y-150196082D01*
X178761986Y-150384535D01*
X178761989Y-150384547D01*
X178835520Y-150562068D01*
X178835521Y-150562070D01*
X178942279Y-150721844D01*
X178942282Y-150721848D01*
X179078151Y-150857717D01*
X179078155Y-150857720D01*
X179237927Y-150964477D01*
X179237928Y-150964477D01*
X179237929Y-150964478D01*
X179237931Y-150964479D01*
X179361074Y-151015486D01*
X179415457Y-151038012D01*
X179543021Y-151063386D01*
X179603917Y-151075499D01*
X179603920Y-151075500D01*
X179603922Y-151075500D01*
X179796080Y-151075500D01*
X179796081Y-151075499D01*
X179984543Y-151038012D01*
X180162073Y-150964477D01*
X180321845Y-150857720D01*
X180457720Y-150721845D01*
X180564477Y-150562073D01*
X180638012Y-150384543D01*
X180675500Y-150196078D01*
X180675500Y-150003922D01*
X180675500Y-150003919D01*
X180675499Y-150003917D01*
X180664575Y-149949000D01*
X180638012Y-149815457D01*
X180638010Y-149815452D01*
X180564479Y-149637931D01*
X180564478Y-149637929D01*
X180543744Y-149606899D01*
X180457720Y-149478155D01*
X180457717Y-149478151D01*
X180321848Y-149342282D01*
X180321844Y-149342279D01*
X180162070Y-149235521D01*
X180162068Y-149235520D01*
X179984547Y-149161989D01*
X179984535Y-149161986D01*
X179796081Y-149124500D01*
X179796078Y-149124500D01*
X179603922Y-149124500D01*
X179603919Y-149124500D01*
X179415464Y-149161986D01*
X179415452Y-149161989D01*
X179255430Y-149228272D01*
X179185961Y-149235741D01*
X179123482Y-149204465D01*
X179120297Y-149201392D01*
X178756086Y-148837181D01*
X178722601Y-148775858D01*
X178727585Y-148706166D01*
X178769457Y-148650233D01*
X178834921Y-148625816D01*
X178843767Y-148625500D01*
X180596721Y-148625500D01*
X180663760Y-148645185D01*
X180709515Y-148697989D01*
X180719459Y-148767147D01*
X180704108Y-148811501D01*
X180673386Y-148864711D01*
X180660544Y-148912638D01*
X180649500Y-148953856D01*
X180649500Y-149046144D01*
X180670495Y-149124500D01*
X180673387Y-149135290D01*
X180673388Y-149135293D01*
X180719526Y-149215205D01*
X180719529Y-149215209D01*
X180719531Y-149215212D01*
X180784788Y-149280469D01*
X180784791Y-149280470D01*
X180784794Y-149280473D01*
X180864706Y-149326611D01*
X180864707Y-149326611D01*
X180864712Y-149326614D01*
X180953856Y-149350500D01*
X180953858Y-149350500D01*
X181046142Y-149350500D01*
X181046144Y-149350500D01*
X181075932Y-149342518D01*
X181087930Y-149342803D01*
X181099179Y-149338608D01*
X181122212Y-149343618D01*
X181145779Y-149344179D01*
X181157427Y-149351279D01*
X181167452Y-149353460D01*
X181195706Y-149374611D01*
X181341392Y-149520297D01*
X181374877Y-149581620D01*
X181369893Y-149651312D01*
X181368272Y-149655430D01*
X181301989Y-149815452D01*
X181301986Y-149815464D01*
X181264500Y-150003917D01*
X181264500Y-150196082D01*
X181301986Y-150384535D01*
X181301989Y-150384547D01*
X181375520Y-150562068D01*
X181375521Y-150562070D01*
X181482279Y-150721844D01*
X181482282Y-150721848D01*
X181618151Y-150857717D01*
X181618155Y-150857720D01*
X181777927Y-150964477D01*
X181777928Y-150964477D01*
X181777929Y-150964478D01*
X181777931Y-150964479D01*
X181901074Y-151015486D01*
X181955457Y-151038012D01*
X182083021Y-151063386D01*
X182143917Y-151075499D01*
X182143920Y-151075500D01*
X182143922Y-151075500D01*
X182336080Y-151075500D01*
X182336081Y-151075499D01*
X182524543Y-151038012D01*
X182702073Y-150964477D01*
X182861845Y-150857720D01*
X182997720Y-150721845D01*
X183104477Y-150562073D01*
X183178012Y-150384543D01*
X183213953Y-150203856D01*
X183612000Y-150203856D01*
X183612000Y-150296144D01*
X183635687Y-150384547D01*
X183635887Y-150385290D01*
X183635888Y-150385293D01*
X183682026Y-150465205D01*
X183682033Y-150465214D01*
X183700681Y-150483862D01*
X183734166Y-150545185D01*
X183737000Y-150571543D01*
X183737000Y-150905142D01*
X183736999Y-150905145D01*
X183736999Y-150994855D01*
X183746952Y-151018882D01*
X183771330Y-151077736D01*
X183771331Y-151077737D01*
X183852200Y-151158606D01*
X183852206Y-151158611D01*
X184925681Y-152232086D01*
X184959166Y-152293409D01*
X184962000Y-152319767D01*
X184962000Y-152808260D01*
X184971926Y-152876391D01*
X185023303Y-152981485D01*
X185106014Y-153064196D01*
X185106015Y-153064196D01*
X185106017Y-153064198D01*
X185211107Y-153115573D01*
X185245173Y-153120536D01*
X185279239Y-153125500D01*
X185279240Y-153125500D01*
X185845761Y-153125500D01*
X185868471Y-153122191D01*
X185913893Y-153115573D01*
X186018983Y-153064198D01*
X186041321Y-153041860D01*
X196699500Y-153041860D01*
X196699500Y-153668132D01*
X196699501Y-153668138D01*
X196705741Y-153715545D01*
X196705742Y-153715547D01*
X196705742Y-153715548D01*
X196754253Y-153819579D01*
X196835421Y-153900747D01*
X196939455Y-153949259D01*
X196986861Y-153955500D01*
X197463138Y-153955499D01*
X197510545Y-153949259D01*
X197614579Y-153900747D01*
X197695747Y-153819579D01*
X197744259Y-153715545D01*
X197744259Y-153715539D01*
X197745297Y-153713315D01*
X197791470Y-153660875D01*
X197858663Y-153641723D01*
X197925544Y-153661938D01*
X197970879Y-153715103D01*
X197981171Y-153754491D01*
X197981408Y-153757105D01*
X197981409Y-153757107D01*
X198031981Y-153919396D01*
X198119927Y-154064877D01*
X198240122Y-154185072D01*
X198385604Y-154273019D01*
X198385603Y-154273019D01*
X198547894Y-154323590D01*
X198547893Y-154323590D01*
X198618408Y-154329998D01*
X198618426Y-154329999D01*
X199125000Y-154329999D01*
X199131581Y-154329999D01*
X199202102Y-154323591D01*
X199202107Y-154323590D01*
X199364396Y-154273018D01*
X199509877Y-154185072D01*
X199630072Y-154064877D01*
X199718019Y-153919395D01*
X199768590Y-153757106D01*
X199775000Y-153686572D01*
X199775000Y-153605000D01*
X199125000Y-153605000D01*
X199125000Y-154329999D01*
X198618426Y-154329999D01*
X198624999Y-154329998D01*
X198625000Y-154329998D01*
X198625000Y-153105000D01*
X199125000Y-153105000D01*
X199774999Y-153105000D01*
X199774999Y-153023417D01*
X199768591Y-152952897D01*
X199768590Y-152952892D01*
X199718018Y-152790603D01*
X199630072Y-152645122D01*
X199509877Y-152524927D01*
X199364395Y-152436980D01*
X199364396Y-152436980D01*
X199202105Y-152386409D01*
X199202106Y-152386409D01*
X199131572Y-152380000D01*
X199125000Y-152380000D01*
X199125000Y-153105000D01*
X198625000Y-153105000D01*
X198625000Y-152380000D01*
X198624999Y-152379999D01*
X198618436Y-152380000D01*
X198618417Y-152380001D01*
X198547897Y-152386408D01*
X198547892Y-152386409D01*
X198385603Y-152436981D01*
X198240122Y-152524927D01*
X198119927Y-152645122D01*
X198031980Y-152790604D01*
X197981409Y-152952893D01*
X197981172Y-152955506D01*
X197980603Y-152956945D01*
X197980129Y-152959330D01*
X197979695Y-152959243D01*
X197955499Y-153020488D01*
X197898769Y-153061275D01*
X197828994Y-153064916D01*
X197768327Y-153030256D01*
X197745299Y-152996685D01*
X197724878Y-152952892D01*
X197695747Y-152890421D01*
X197614579Y-152809253D01*
X197574584Y-152790603D01*
X197554692Y-152781327D01*
X197502253Y-152735154D01*
X197483101Y-152667961D01*
X197503317Y-152601079D01*
X197519409Y-152581271D01*
X197530469Y-152570212D01*
X197576614Y-152490288D01*
X197600500Y-152401144D01*
X197600500Y-152308856D01*
X197576614Y-152219712D01*
X197576611Y-152219706D01*
X197530473Y-152139794D01*
X197530470Y-152139791D01*
X197530469Y-152139788D01*
X197465212Y-152074531D01*
X197465209Y-152074529D01*
X197465205Y-152074526D01*
X197385293Y-152028388D01*
X197385290Y-152028387D01*
X197385289Y-152028386D01*
X197385288Y-152028386D01*
X197296144Y-152004500D01*
X197203856Y-152004500D01*
X197114712Y-152028386D01*
X197114711Y-152028386D01*
X197114709Y-152028387D01*
X197114706Y-152028388D01*
X197034794Y-152074526D01*
X197034785Y-152074533D01*
X196969533Y-152139785D01*
X196969526Y-152139794D01*
X196923388Y-152219706D01*
X196923387Y-152219709D01*
X196923386Y-152219711D01*
X196923386Y-152219712D01*
X196899500Y-152308856D01*
X196899500Y-152401144D01*
X196916610Y-152465000D01*
X196923387Y-152490290D01*
X196923388Y-152490293D01*
X196969526Y-152570205D01*
X196974478Y-152576658D01*
X196971920Y-152578620D01*
X196998167Y-152626686D01*
X196993183Y-152696378D01*
X196951311Y-152752311D01*
X196929407Y-152765426D01*
X196847122Y-152803796D01*
X196837551Y-152808260D01*
X196835419Y-152809254D01*
X196754253Y-152890420D01*
X196705740Y-152994456D01*
X196699500Y-153041860D01*
X186041321Y-153041860D01*
X186101698Y-152981483D01*
X186153073Y-152876393D01*
X186153073Y-152876391D01*
X186153074Y-152876390D01*
X186155916Y-152867193D01*
X186158560Y-152868009D01*
X186181448Y-152818130D01*
X186240294Y-152780461D01*
X186249957Y-152778059D01*
X186262354Y-152775501D01*
X186332355Y-152775501D01*
X186390960Y-152751225D01*
X186415236Y-152741170D01*
X186415237Y-152741168D01*
X186420563Y-152738963D01*
X186490032Y-152731494D01*
X186552511Y-152762769D01*
X186571118Y-152784633D01*
X186613875Y-152848624D01*
X186641666Y-152867193D01*
X186705005Y-152909515D01*
X186705008Y-152909515D01*
X186705009Y-152909516D01*
X186732033Y-152914891D01*
X186785367Y-152925500D01*
X187864632Y-152925499D01*
X187944995Y-152909515D01*
X188036124Y-152848624D01*
X188097015Y-152757495D01*
X188113000Y-152677133D01*
X188112999Y-152322868D01*
X188097015Y-152242505D01*
X188074964Y-152209504D01*
X188036124Y-152151375D01*
X187966718Y-152105000D01*
X187944995Y-152090485D01*
X187944993Y-152090484D01*
X187944990Y-152090483D01*
X187864635Y-152074500D01*
X186785370Y-152074500D01*
X186705004Y-152090485D01*
X186613876Y-152151375D01*
X186598425Y-152174500D01*
X186568428Y-152219391D01*
X186562339Y-152224481D01*
X186559041Y-152231703D01*
X186535915Y-152246564D01*
X186514819Y-152264196D01*
X186505442Y-152266148D01*
X186500263Y-152269477D01*
X186465328Y-152274500D01*
X186396797Y-152274500D01*
X186396789Y-152274499D01*
X186382355Y-152274499D01*
X186292646Y-152274499D01*
X186292641Y-152274499D01*
X186281765Y-152276662D01*
X186212174Y-152270432D01*
X186156998Y-152227567D01*
X186146180Y-152209508D01*
X186101698Y-152118517D01*
X186101696Y-152118515D01*
X186101696Y-152118514D01*
X186074416Y-152091234D01*
X186040931Y-152029911D01*
X186045915Y-151960219D01*
X186087787Y-151904286D01*
X186114730Y-151890216D01*
X186114441Y-151889597D01*
X186120992Y-151886542D01*
X186265228Y-151797575D01*
X186265232Y-151797572D01*
X186385072Y-151677732D01*
X186385075Y-151677728D01*
X186474042Y-151533492D01*
X186474047Y-151533481D01*
X186527355Y-151372606D01*
X186537499Y-151273322D01*
X186537500Y-151273309D01*
X186537500Y-151250000D01*
X184632767Y-151250000D01*
X184565728Y-151230315D01*
X184545086Y-151213681D01*
X184224319Y-150892914D01*
X184209615Y-150865986D01*
X184193023Y-150840168D01*
X184192131Y-150833967D01*
X184190834Y-150831591D01*
X184188000Y-150805233D01*
X184188000Y-150726677D01*
X184587500Y-150726677D01*
X184587500Y-150750000D01*
X185312500Y-150750000D01*
X185812500Y-150750000D01*
X186429839Y-150750000D01*
X186496878Y-150769685D01*
X186542633Y-150822489D01*
X186551455Y-150849805D01*
X186552806Y-150856595D01*
X186552985Y-150857495D01*
X186613875Y-150948624D01*
X186646026Y-150970106D01*
X186705005Y-151009515D01*
X186705008Y-151009515D01*
X186705009Y-151009516D01*
X186732033Y-151014891D01*
X186785367Y-151025500D01*
X187864632Y-151025499D01*
X187944995Y-151009515D01*
X188036124Y-150948624D01*
X188097015Y-150857495D01*
X188113000Y-150777133D01*
X188112999Y-150422868D01*
X188097015Y-150342505D01*
X188054246Y-150278497D01*
X188036124Y-150251375D01*
X187967189Y-150205315D01*
X187944995Y-150190485D01*
X187944993Y-150190484D01*
X187944990Y-150190483D01*
X187864635Y-150174500D01*
X186785370Y-150174500D01*
X186705004Y-150190485D01*
X186613875Y-150251375D01*
X186577778Y-150305400D01*
X186524166Y-150350205D01*
X186454841Y-150358912D01*
X186391814Y-150328758D01*
X186386995Y-150324190D01*
X186265232Y-150202427D01*
X186265228Y-150202424D01*
X186120992Y-150113457D01*
X186120981Y-150113452D01*
X185960106Y-150060144D01*
X185860822Y-150050000D01*
X185812500Y-150050000D01*
X185812500Y-150750000D01*
X185312500Y-150750000D01*
X185312500Y-150050000D01*
X185312499Y-150049999D01*
X185264193Y-150050000D01*
X185264175Y-150050001D01*
X185164892Y-150060144D01*
X185004018Y-150113452D01*
X185004007Y-150113457D01*
X184859771Y-150202424D01*
X184859767Y-150202427D01*
X184739927Y-150322267D01*
X184739924Y-150322271D01*
X184650957Y-150466507D01*
X184650952Y-150466518D01*
X184597644Y-150627393D01*
X184587500Y-150726677D01*
X184188000Y-150726677D01*
X184188000Y-150571543D01*
X184207685Y-150504504D01*
X184224319Y-150483862D01*
X184233182Y-150474999D01*
X184242969Y-150465212D01*
X184289114Y-150385288D01*
X184313000Y-150296144D01*
X184313000Y-150203856D01*
X184289114Y-150114712D01*
X184289111Y-150114706D01*
X184242973Y-150034794D01*
X184242970Y-150034791D01*
X184242969Y-150034788D01*
X184177712Y-149969531D01*
X184177709Y-149969529D01*
X184177705Y-149969526D01*
X184097793Y-149923388D01*
X184097790Y-149923387D01*
X184097789Y-149923386D01*
X184097788Y-149923386D01*
X184008644Y-149899500D01*
X183916356Y-149899500D01*
X183827212Y-149923386D01*
X183827211Y-149923386D01*
X183827209Y-149923387D01*
X183827206Y-149923388D01*
X183747294Y-149969526D01*
X183747285Y-149969533D01*
X183682033Y-150034785D01*
X183682026Y-150034794D01*
X183635888Y-150114706D01*
X183635887Y-150114709D01*
X183635886Y-150114711D01*
X183635886Y-150114712D01*
X183612000Y-150203856D01*
X183213953Y-150203856D01*
X183215500Y-150196078D01*
X183215500Y-150003922D01*
X183215500Y-150003919D01*
X183215499Y-150003917D01*
X183204575Y-149949000D01*
X183178012Y-149815457D01*
X183178010Y-149815452D01*
X183104479Y-149637931D01*
X183104478Y-149637929D01*
X183083744Y-149606899D01*
X182997720Y-149478155D01*
X182997717Y-149478151D01*
X182861848Y-149342282D01*
X182861844Y-149342279D01*
X182702070Y-149235521D01*
X182702068Y-149235520D01*
X182524547Y-149161989D01*
X182524535Y-149161986D01*
X182336081Y-149124500D01*
X182336078Y-149124500D01*
X182143922Y-149124500D01*
X182143919Y-149124500D01*
X181955464Y-149161986D01*
X181955452Y-149161989D01*
X181795430Y-149228272D01*
X181725961Y-149235741D01*
X181663482Y-149204465D01*
X181660297Y-149201392D01*
X181348604Y-148889699D01*
X181342243Y-148883337D01*
X181342238Y-148883329D01*
X181322545Y-148857664D01*
X181295892Y-148811501D01*
X181279418Y-148743601D01*
X181302270Y-148677574D01*
X181357190Y-148634383D01*
X181403278Y-148625500D01*
X186750500Y-148625500D01*
X186817539Y-148645185D01*
X186863294Y-148697989D01*
X186874500Y-148749500D01*
X186874500Y-149335636D01*
X186885134Y-149408625D01*
X186885134Y-149408626D01*
X186885135Y-149408628D01*
X186940172Y-149521210D01*
X187028789Y-149609827D01*
X187122073Y-149655430D01*
X187141375Y-149664866D01*
X187214364Y-149675500D01*
X187214370Y-149675500D01*
X187810630Y-149675500D01*
X187810636Y-149675500D01*
X187883625Y-149664866D01*
X187960764Y-149627155D01*
X187996210Y-149609827D01*
X188084827Y-149521210D01*
X188113320Y-149462925D01*
X188139866Y-149408625D01*
X188150500Y-149335636D01*
X188150500Y-148364364D01*
X188139866Y-148291375D01*
X188131356Y-148273968D01*
X188084827Y-148178789D01*
X187996210Y-148090172D01*
X187883628Y-148035135D01*
X187883626Y-148035134D01*
X187883625Y-148035134D01*
X187810636Y-148024500D01*
X187214364Y-148024500D01*
X187165704Y-148031589D01*
X187141372Y-148035134D01*
X187086624Y-148061900D01*
X187032163Y-148074500D01*
X171099500Y-148074500D01*
X171032461Y-148054815D01*
X170986706Y-148002011D01*
X170975500Y-147950500D01*
X170975499Y-147699501D01*
X170995183Y-147632462D01*
X171047987Y-147586707D01*
X171079800Y-147577076D01*
X171089589Y-147575501D01*
X171169856Y-147575501D01*
X171220839Y-147554382D01*
X171235180Y-147552075D01*
X171242376Y-147552986D01*
X171254879Y-147550500D01*
X196428457Y-147550500D01*
X196495496Y-147570185D01*
X196516138Y-147586819D01*
X196534788Y-147605469D01*
X196534791Y-147605470D01*
X196534794Y-147605473D01*
X196614706Y-147651611D01*
X196614707Y-147651611D01*
X196614712Y-147651614D01*
X196703856Y-147675500D01*
X196703858Y-147675500D01*
X196796142Y-147675500D01*
X196796144Y-147675500D01*
X196823406Y-147668195D01*
X196893255Y-147669856D01*
X196951118Y-147709018D01*
X196978623Y-147773246D01*
X196979500Y-147787968D01*
X196979501Y-147925499D01*
X196959817Y-147992539D01*
X196907013Y-148038294D01*
X196855501Y-148049500D01*
X189766699Y-148049500D01*
X189712238Y-148036900D01*
X189708628Y-148035135D01*
X189708626Y-148035134D01*
X189698198Y-148033614D01*
X189635636Y-148024500D01*
X189039364Y-148024500D01*
X188966375Y-148035134D01*
X188966373Y-148035134D01*
X188966371Y-148035135D01*
X188853789Y-148090172D01*
X188765172Y-148178789D01*
X188710135Y-148291371D01*
X188710134Y-148291373D01*
X188710134Y-148291375D01*
X188699500Y-148364364D01*
X188699500Y-149335636D01*
X188710134Y-149408625D01*
X188710134Y-149408626D01*
X188710135Y-149408628D01*
X188765172Y-149521210D01*
X188853789Y-149609827D01*
X188947073Y-149655430D01*
X188966375Y-149664866D01*
X189039364Y-149675500D01*
X189200500Y-149675500D01*
X189267539Y-149695185D01*
X189313294Y-149747989D01*
X189324500Y-149799500D01*
X189324500Y-150050500D01*
X189304815Y-150117539D01*
X189252011Y-150163294D01*
X189200501Y-150174500D01*
X189060370Y-150174500D01*
X188980004Y-150190485D01*
X188888875Y-150251375D01*
X188827985Y-150342505D01*
X188827983Y-150342509D01*
X188812000Y-150422863D01*
X188812000Y-150737037D01*
X188792315Y-150804076D01*
X188751124Y-150843767D01*
X188685943Y-150882316D01*
X188685941Y-150882319D01*
X188569821Y-150998438D01*
X188569814Y-150998447D01*
X188486218Y-151139801D01*
X188440399Y-151297513D01*
X188440204Y-151299998D01*
X188440205Y-151300000D01*
X189476000Y-151300000D01*
X189543039Y-151319685D01*
X189588794Y-151372489D01*
X189600000Y-151424000D01*
X189600000Y-151676000D01*
X189580315Y-151743039D01*
X189527511Y-151788794D01*
X189476000Y-151800000D01*
X188440205Y-151800000D01*
X188440204Y-151800001D01*
X188440399Y-151802486D01*
X188486218Y-151960198D01*
X188569814Y-152101552D01*
X188569821Y-152101561D01*
X188685938Y-152217678D01*
X188685944Y-152217683D01*
X188693258Y-152222008D01*
X188740943Y-152273076D01*
X188753449Y-152341818D01*
X188744702Y-152376194D01*
X188712000Y-152455145D01*
X188712000Y-152544853D01*
X188712001Y-152544858D01*
X188746327Y-152627733D01*
X188746329Y-152627736D01*
X188789443Y-152670850D01*
X188822927Y-152732173D01*
X188823378Y-152734337D01*
X188827984Y-152757493D01*
X188827984Y-152757494D01*
X188827985Y-152757495D01*
X188835203Y-152768297D01*
X188888875Y-152848624D01*
X188916666Y-152867193D01*
X188980005Y-152909515D01*
X188980008Y-152909515D01*
X188980009Y-152909516D01*
X189007033Y-152914891D01*
X189060367Y-152925500D01*
X190139632Y-152925499D01*
X190219995Y-152909515D01*
X190311124Y-152848624D01*
X190356571Y-152780608D01*
X190362660Y-152775518D01*
X190365959Y-152768297D01*
X190389084Y-152753435D01*
X190410181Y-152735804D01*
X190419557Y-152733851D01*
X190424737Y-152730523D01*
X190459672Y-152725500D01*
X190615703Y-152725500D01*
X190615711Y-152725501D01*
X190630145Y-152725501D01*
X190719853Y-152725501D01*
X190719855Y-152725501D01*
X190778460Y-152701225D01*
X190802736Y-152691170D01*
X190866170Y-152627736D01*
X190866170Y-152627734D01*
X191416170Y-152077736D01*
X191416170Y-152077734D01*
X191416172Y-152077733D01*
X191433539Y-152035802D01*
X191450500Y-151994855D01*
X191450500Y-151905146D01*
X191450500Y-151205513D01*
X192399500Y-151205513D01*
X192399500Y-151394486D01*
X192429059Y-151581118D01*
X192487454Y-151760836D01*
X192536246Y-151856594D01*
X192573240Y-151929199D01*
X192684310Y-152082073D01*
X192817927Y-152215690D01*
X192970801Y-152326760D01*
X193041084Y-152362571D01*
X193139163Y-152412545D01*
X193139165Y-152412545D01*
X193139168Y-152412547D01*
X193194154Y-152430413D01*
X193318881Y-152470940D01*
X193505514Y-152500500D01*
X193505519Y-152500500D01*
X193694486Y-152500500D01*
X193881118Y-152470940D01*
X193899402Y-152464999D01*
X194060832Y-152412547D01*
X194229199Y-152326760D01*
X194382073Y-152215690D01*
X194515690Y-152082073D01*
X194626760Y-151929199D01*
X194712547Y-151760832D01*
X194770940Y-151581118D01*
X194799267Y-151402270D01*
X194799267Y-151402268D01*
X194800500Y-151394483D01*
X194800500Y-151205513D01*
X194770940Y-151018881D01*
X194728459Y-150888141D01*
X194712547Y-150839168D01*
X194712545Y-150839165D01*
X194712545Y-150839163D01*
X194655230Y-150726677D01*
X194626760Y-150670801D01*
X194515690Y-150517927D01*
X194382073Y-150384310D01*
X194229199Y-150273240D01*
X194210307Y-150263614D01*
X194060836Y-150187454D01*
X193881118Y-150129059D01*
X193694486Y-150099500D01*
X193694481Y-150099500D01*
X193505519Y-150099500D01*
X193505514Y-150099500D01*
X193318881Y-150129059D01*
X193139163Y-150187454D01*
X192970800Y-150273240D01*
X192894387Y-150328758D01*
X192817927Y-150384310D01*
X192817925Y-150384312D01*
X192817924Y-150384312D01*
X192684312Y-150517924D01*
X192684312Y-150517925D01*
X192684310Y-150517927D01*
X192664955Y-150544567D01*
X192573240Y-150670800D01*
X192487454Y-150839163D01*
X192429059Y-151018881D01*
X192399500Y-151205513D01*
X191450500Y-151205513D01*
X191450500Y-151109297D01*
X191450501Y-151109288D01*
X191450501Y-151005146D01*
X191450501Y-151005145D01*
X191426225Y-150946539D01*
X191416170Y-150922264D01*
X191352736Y-150858830D01*
X191345671Y-150851765D01*
X191345664Y-150851759D01*
X190989292Y-150495387D01*
X190966170Y-150472265D01*
X190966170Y-150472264D01*
X190902736Y-150408830D01*
X190861856Y-150391897D01*
X190845901Y-150385288D01*
X190819857Y-150374499D01*
X190819855Y-150374499D01*
X190730145Y-150374499D01*
X190715711Y-150374499D01*
X190715703Y-150374500D01*
X190459672Y-150374500D01*
X190392633Y-150354815D01*
X190356571Y-150319392D01*
X190311124Y-150251376D01*
X190308316Y-150249500D01*
X190242189Y-150205315D01*
X190219995Y-150190485D01*
X190219993Y-150190484D01*
X190219990Y-150190483D01*
X190139637Y-150174500D01*
X190139633Y-150174500D01*
X189999500Y-150174500D01*
X189932461Y-150154815D01*
X189886706Y-150102011D01*
X189875500Y-150050500D01*
X189875500Y-150022844D01*
X196605000Y-150022844D01*
X196611401Y-150082372D01*
X196611403Y-150082379D01*
X196661645Y-150217086D01*
X196661649Y-150217093D01*
X196747809Y-150332187D01*
X196747812Y-150332190D01*
X196862906Y-150418350D01*
X196862913Y-150418354D01*
X196997620Y-150468596D01*
X196997627Y-150468598D01*
X197057155Y-150474999D01*
X197057172Y-150475000D01*
X197305000Y-150475000D01*
X197305000Y-149975000D01*
X196605000Y-149975000D01*
X196605000Y-150022844D01*
X189875500Y-150022844D01*
X189875500Y-149606899D01*
X189895185Y-149539860D01*
X189906819Y-149525422D01*
X189909827Y-149521210D01*
X189938320Y-149462925D01*
X189964866Y-149408625D01*
X189975500Y-149335636D01*
X189975500Y-148724500D01*
X189995185Y-148657461D01*
X190047989Y-148611706D01*
X190099500Y-148600500D01*
X196855500Y-148600500D01*
X196922539Y-148620185D01*
X196968294Y-148672989D01*
X196979500Y-148724500D01*
X196979500Y-148987358D01*
X196979501Y-148987366D01*
X196986780Y-149023965D01*
X196988264Y-149027548D01*
X196991111Y-149054035D01*
X196997606Y-149079876D01*
X196995110Y-149091247D01*
X196995731Y-149097018D01*
X196991213Y-149114586D01*
X196987942Y-149124293D01*
X196986781Y-149126032D01*
X196985950Y-149130206D01*
X196983400Y-149137778D01*
X196967762Y-149160125D01*
X196955117Y-149184298D01*
X196947234Y-149189463D01*
X196943343Y-149195025D01*
X196931070Y-149200056D01*
X196909225Y-149214372D01*
X196862913Y-149231646D01*
X196747809Y-149317813D01*
X196661649Y-149432906D01*
X196661645Y-149432913D01*
X196611403Y-149567620D01*
X196611401Y-149567627D01*
X196605000Y-149627155D01*
X196605000Y-149675000D01*
X197331000Y-149675000D01*
X197339685Y-149677550D01*
X197348647Y-149676262D01*
X197372687Y-149687240D01*
X197398039Y-149694685D01*
X197403966Y-149701525D01*
X197412203Y-149705287D01*
X197426492Y-149727521D01*
X197443794Y-149747489D01*
X197446081Y-149758003D01*
X197449977Y-149764065D01*
X197455000Y-149799000D01*
X197455000Y-149825000D01*
X197481000Y-149825000D01*
X197548039Y-149844685D01*
X197593794Y-149897489D01*
X197605000Y-149949000D01*
X197605000Y-150475000D01*
X197620771Y-150490771D01*
X197634100Y-150494685D01*
X197679855Y-150547489D01*
X197689351Y-150610855D01*
X197689500Y-150610855D01*
X197689500Y-150611851D01*
X197690000Y-150615188D01*
X197689500Y-150618979D01*
X197689500Y-150618982D01*
X197689500Y-150731018D01*
X197716449Y-150831591D01*
X197718497Y-150839236D01*
X197718498Y-150839239D01*
X197725730Y-150851765D01*
X197774515Y-150936263D01*
X197853737Y-151015485D01*
X197950763Y-151071503D01*
X198058982Y-151100500D01*
X198058984Y-151100500D01*
X198171016Y-151100500D01*
X198171018Y-151100500D01*
X198279237Y-151071503D01*
X198376263Y-151015485D01*
X198400429Y-150991319D01*
X198461752Y-150957834D01*
X198488110Y-150955000D01*
X199015272Y-150955000D01*
X198923386Y-150993060D01*
X198853060Y-151063386D01*
X198815000Y-151155272D01*
X198815000Y-151254728D01*
X198853060Y-151346614D01*
X198923386Y-151416940D01*
X199015272Y-151455000D01*
X198197096Y-151455000D01*
X198199584Y-151467516D01*
X198199587Y-151467523D01*
X198267428Y-151631306D01*
X198267433Y-151631316D01*
X198365923Y-151778716D01*
X198365926Y-151778720D01*
X198491279Y-151904073D01*
X198491283Y-151904076D01*
X198638683Y-152002566D01*
X198638692Y-152002571D01*
X198802479Y-152070413D01*
X198802487Y-152070415D01*
X198976353Y-152104999D01*
X198976357Y-152105000D01*
X199115000Y-152105000D01*
X199115000Y-151455000D01*
X199615000Y-151455000D01*
X199615000Y-152105000D01*
X199753643Y-152105000D01*
X199753646Y-152104999D01*
X199927512Y-152070415D01*
X199927520Y-152070413D01*
X200091307Y-152002571D01*
X200091316Y-152002566D01*
X200238716Y-151904076D01*
X200238720Y-151904073D01*
X200364073Y-151778720D01*
X200364076Y-151778716D01*
X200408136Y-151712777D01*
X200462566Y-151631316D01*
X200462571Y-151631306D01*
X200530412Y-151467523D01*
X200530415Y-151467516D01*
X200532904Y-151455000D01*
X199714728Y-151455000D01*
X199806614Y-151416940D01*
X199876940Y-151346614D01*
X199915000Y-151254728D01*
X199915000Y-151155272D01*
X199876940Y-151063386D01*
X199806614Y-150993060D01*
X199714728Y-150955000D01*
X200532904Y-150955000D01*
X200530415Y-150942483D01*
X200530412Y-150942476D01*
X200462571Y-150778693D01*
X200462566Y-150778683D01*
X200364076Y-150631283D01*
X200364073Y-150631279D01*
X200238720Y-150505926D01*
X200238716Y-150505923D01*
X200091316Y-150407433D01*
X200091304Y-150407427D01*
X200080583Y-150402986D01*
X200026180Y-150359144D01*
X200004117Y-150292849D01*
X200004749Y-150275169D01*
X200004999Y-150272841D01*
X200005000Y-150272827D01*
X200005000Y-150225000D01*
X199279000Y-150225000D01*
X199270314Y-150222449D01*
X199261353Y-150223738D01*
X199237312Y-150212759D01*
X199211961Y-150205315D01*
X199206033Y-150198474D01*
X199197797Y-150194713D01*
X199183507Y-150172478D01*
X199166206Y-150152511D01*
X199163918Y-150141996D01*
X199160023Y-150135935D01*
X199155000Y-150101000D01*
X199155000Y-150049000D01*
X199174685Y-149981961D01*
X199227489Y-149936206D01*
X199279000Y-149925000D01*
X200005000Y-149925000D01*
X200005000Y-149877172D01*
X200004999Y-149877155D01*
X199998598Y-149817627D01*
X199998596Y-149817620D01*
X199948354Y-149682913D01*
X199948350Y-149682906D01*
X199862190Y-149567812D01*
X199862187Y-149567809D01*
X199747092Y-149481648D01*
X199700774Y-149464372D01*
X199699125Y-149463137D01*
X199697076Y-149462925D01*
X199671278Y-149442291D01*
X199644842Y-149422500D01*
X199643614Y-149420164D01*
X199642513Y-149419283D01*
X199639747Y-149412804D01*
X199626600Y-149387780D01*
X199624050Y-149380211D01*
X199623219Y-149376032D01*
X199622055Y-149374290D01*
X199618787Y-149364589D01*
X199617570Y-149333709D01*
X199614267Y-149302986D01*
X199616112Y-149296699D01*
X199616037Y-149294773D01*
X199617317Y-149292597D01*
X199621737Y-149277544D01*
X199623215Y-149273973D01*
X199623219Y-149273968D01*
X199630500Y-149237363D01*
X199630499Y-148974499D01*
X199650183Y-148907461D01*
X199702987Y-148861706D01*
X199754499Y-148850500D01*
X199859799Y-148850500D01*
X199859800Y-148850500D01*
X199961058Y-148808557D01*
X200038557Y-148731058D01*
X200038556Y-148731058D01*
X200097116Y-148672498D01*
X200733557Y-148036059D01*
X200753728Y-147987362D01*
X200775500Y-147934800D01*
X200775500Y-147357044D01*
X200792114Y-147295042D01*
X200804282Y-147273968D01*
X200826614Y-147235288D01*
X200850500Y-147146144D01*
X200850500Y-147053856D01*
X200826614Y-146964712D01*
X200826611Y-146964706D01*
X200780473Y-146884794D01*
X200780470Y-146884791D01*
X200780469Y-146884788D01*
X200715212Y-146819531D01*
X200715209Y-146819529D01*
X200715205Y-146819526D01*
X200635293Y-146773388D01*
X200635290Y-146773387D01*
X200635289Y-146773386D01*
X200635288Y-146773386D01*
X200546144Y-146749500D01*
X200546143Y-146749500D01*
X200538294Y-146747397D01*
X200538974Y-146744856D01*
X200486983Y-146721847D01*
X200448521Y-146663517D01*
X200447699Y-146593652D01*
X200479396Y-146539507D01*
X201102734Y-145916170D01*
X201102736Y-145916170D01*
X201166170Y-145852736D01*
X201187462Y-145801332D01*
X201200501Y-145769854D01*
X201200501Y-145680145D01*
X201200501Y-145670156D01*
X201200500Y-145670142D01*
X201200500Y-141556255D01*
X201220185Y-141489216D01*
X201272095Y-141443873D01*
X201272097Y-141443872D01*
X201364579Y-141400747D01*
X201445747Y-141319579D01*
X201494259Y-141215545D01*
X201500500Y-141168139D01*
X201500499Y-140541862D01*
X201494259Y-140494455D01*
X201445747Y-140390421D01*
X201364579Y-140309253D01*
X201260545Y-140260741D01*
X201260543Y-140260740D01*
X201260544Y-140260740D01*
X201213139Y-140254500D01*
X200736867Y-140254500D01*
X200721839Y-140256478D01*
X200689455Y-140260741D01*
X200689453Y-140260742D01*
X200689451Y-140260742D01*
X200585420Y-140309253D01*
X200504253Y-140390420D01*
X200454701Y-140496685D01*
X200408528Y-140549124D01*
X200341335Y-140568276D01*
X200274454Y-140548060D01*
X200229119Y-140494895D01*
X200218827Y-140455495D01*
X200218590Y-140452891D01*
X200168018Y-140290603D01*
X200080072Y-140145122D01*
X199959877Y-140024927D01*
X199814395Y-139936980D01*
X199814396Y-139936980D01*
X199652105Y-139886409D01*
X199652106Y-139886409D01*
X199581572Y-139880000D01*
X199575000Y-139880000D01*
X199575000Y-141822193D01*
X199728726Y-141799715D01*
X199814396Y-141773018D01*
X199959877Y-141685072D01*
X200080072Y-141564877D01*
X200168019Y-141419395D01*
X200218589Y-141257109D01*
X200218826Y-141254507D01*
X200219393Y-141253069D01*
X200219871Y-141250670D01*
X200220307Y-141250756D01*
X200244491Y-141189522D01*
X200301216Y-141148729D01*
X200370990Y-141145079D01*
X200431661Y-141179732D01*
X200454700Y-141213313D01*
X200455741Y-141215545D01*
X200504253Y-141319579D01*
X200504254Y-141319580D01*
X200585421Y-141400747D01*
X200585420Y-141400747D01*
X200623584Y-141418543D01*
X200677905Y-141443873D01*
X200730344Y-141490044D01*
X200749500Y-141556254D01*
X200749500Y-142588010D01*
X200729815Y-142655049D01*
X200677011Y-142700804D01*
X200607853Y-142710748D01*
X200544297Y-142681723D01*
X200510939Y-142635463D01*
X200462571Y-142518692D01*
X200462566Y-142518683D01*
X200364076Y-142371283D01*
X200364073Y-142371279D01*
X200238720Y-142245926D01*
X200238716Y-142245923D01*
X200091316Y-142147433D01*
X200091307Y-142147428D01*
X199927520Y-142079586D01*
X199927512Y-142079584D01*
X199758594Y-142045984D01*
X199615000Y-142066981D01*
X199615000Y-142695000D01*
X199115000Y-142695000D01*
X199115000Y-142046672D01*
X198935552Y-142053115D01*
X198802485Y-142079584D01*
X198802479Y-142079586D01*
X198638692Y-142147428D01*
X198638683Y-142147433D01*
X198491283Y-142245923D01*
X198491279Y-142245926D01*
X198365926Y-142371279D01*
X198365923Y-142371283D01*
X198267433Y-142518683D01*
X198267428Y-142518692D01*
X198199586Y-142682479D01*
X198199584Y-142682487D01*
X198176271Y-142799691D01*
X198143886Y-142861602D01*
X198083171Y-142896176D01*
X198066992Y-142898061D01*
X198067042Y-142898439D01*
X198058982Y-142899500D01*
X197950763Y-142928497D01*
X197950760Y-142928498D01*
X197853740Y-142984513D01*
X197853734Y-142984517D01*
X197774517Y-143063734D01*
X197774513Y-143063740D01*
X197718498Y-143160760D01*
X197718497Y-143160763D01*
X197689500Y-143268982D01*
X197689500Y-143551000D01*
X197669815Y-143618039D01*
X197617011Y-143663794D01*
X197615982Y-143664017D01*
X197605000Y-143675000D01*
X197605000Y-144201000D01*
X197602449Y-144209685D01*
X197603738Y-144218647D01*
X197592759Y-144242687D01*
X197585315Y-144268039D01*
X197578474Y-144273966D01*
X197574713Y-144282203D01*
X197552478Y-144296492D01*
X197532511Y-144313794D01*
X197521996Y-144316081D01*
X197515935Y-144319977D01*
X197481000Y-144325000D01*
X197455000Y-144325000D01*
X197455000Y-144351000D01*
X197435315Y-144418039D01*
X197382511Y-144463794D01*
X197331000Y-144475000D01*
X196605000Y-144475000D01*
X196605000Y-144522844D01*
X196611401Y-144582372D01*
X196611403Y-144582379D01*
X196661645Y-144717086D01*
X196661649Y-144717093D01*
X196747809Y-144832187D01*
X196747812Y-144832190D01*
X196862906Y-144918350D01*
X196862915Y-144918355D01*
X196909221Y-144935626D01*
X196910870Y-144936860D01*
X196912923Y-144937074D01*
X196938733Y-144957718D01*
X196965155Y-144977497D01*
X196966382Y-144979833D01*
X196967486Y-144980716D01*
X196970255Y-144987205D01*
X196983399Y-145012219D01*
X196985950Y-145019793D01*
X196986781Y-145023968D01*
X196987943Y-145025707D01*
X196991212Y-145035410D01*
X196992428Y-145066292D01*
X196995731Y-145097018D01*
X196993886Y-145103301D01*
X196993962Y-145105226D01*
X196992682Y-145107400D01*
X196988265Y-145122446D01*
X196986781Y-145126029D01*
X196979500Y-145162633D01*
X196979500Y-145487358D01*
X196979501Y-145487366D01*
X196986780Y-145523965D01*
X196988264Y-145527548D01*
X196995731Y-145597018D01*
X196988265Y-145622446D01*
X196986781Y-145626029D01*
X196979500Y-145662633D01*
X196979500Y-145987358D01*
X196979501Y-145987366D01*
X196986780Y-146023965D01*
X196988264Y-146027548D01*
X196995731Y-146097018D01*
X196988265Y-146122446D01*
X196986781Y-146126029D01*
X196979500Y-146162633D01*
X196979500Y-146162635D01*
X196979500Y-146162637D01*
X196979500Y-146320841D01*
X196979501Y-146475500D01*
X196959817Y-146542539D01*
X196907013Y-146588294D01*
X196855501Y-146599500D01*
X185588845Y-146599500D01*
X185521806Y-146579815D01*
X185476051Y-146527011D01*
X185466107Y-146457853D01*
X185481458Y-146413499D01*
X185481956Y-146412637D01*
X185526614Y-146335288D01*
X185550500Y-146246144D01*
X185550500Y-146153856D01*
X185550500Y-146149766D01*
X185570185Y-146082727D01*
X185586819Y-146062085D01*
X186314385Y-145334519D01*
X187045491Y-144603412D01*
X187106812Y-144569929D01*
X187176504Y-144574913D01*
X187232437Y-144616785D01*
X187252945Y-144659001D01*
X187273387Y-144735292D01*
X187273388Y-144735293D01*
X187319526Y-144815205D01*
X187319529Y-144815209D01*
X187319531Y-144815212D01*
X187384788Y-144880469D01*
X187384791Y-144880470D01*
X187384794Y-144880473D01*
X187464706Y-144926611D01*
X187464707Y-144926611D01*
X187464712Y-144926614D01*
X187553856Y-144950500D01*
X187553858Y-144950500D01*
X187646142Y-144950500D01*
X187646144Y-144950500D01*
X187735288Y-144926614D01*
X187815212Y-144880469D01*
X187833862Y-144861819D01*
X187895185Y-144828334D01*
X187921543Y-144825500D01*
X191750703Y-144825500D01*
X191750711Y-144825501D01*
X191765145Y-144825501D01*
X191854852Y-144825501D01*
X191854855Y-144825501D01*
X191900048Y-144806781D01*
X191917624Y-144799501D01*
X191924733Y-144796555D01*
X191937736Y-144791170D01*
X192001170Y-144727736D01*
X192001170Y-144727735D01*
X192018608Y-144710297D01*
X192018610Y-144710294D01*
X192601749Y-144127155D01*
X196605000Y-144127155D01*
X196605000Y-144175000D01*
X197305000Y-144175000D01*
X197305000Y-143675000D01*
X197057155Y-143675000D01*
X196997627Y-143681401D01*
X196997620Y-143681403D01*
X196862913Y-143731645D01*
X196862906Y-143731649D01*
X196747812Y-143817809D01*
X196747809Y-143817812D01*
X196661649Y-143932906D01*
X196661645Y-143932913D01*
X196611403Y-144067620D01*
X196611401Y-144067627D01*
X196605000Y-144127155D01*
X192601749Y-144127155D01*
X193830298Y-142898605D01*
X193891619Y-142865122D01*
X193961311Y-142870106D01*
X193965429Y-142871727D01*
X194102488Y-142928498D01*
X194125457Y-142938012D01*
X194313912Y-142975498D01*
X194313917Y-142975499D01*
X194313920Y-142975500D01*
X194313922Y-142975500D01*
X194506080Y-142975500D01*
X194506081Y-142975499D01*
X194694543Y-142938012D01*
X194872073Y-142864477D01*
X195031845Y-142757720D01*
X195167720Y-142621845D01*
X195274477Y-142462073D01*
X195348012Y-142284543D01*
X195385500Y-142096078D01*
X195385500Y-141903922D01*
X195385500Y-141903919D01*
X195385499Y-141903917D01*
X195371007Y-141831061D01*
X195348012Y-141715457D01*
X195335396Y-141685000D01*
X195274479Y-141537931D01*
X195274478Y-141537929D01*
X195250478Y-141502011D01*
X195167720Y-141378155D01*
X195167717Y-141378151D01*
X195031848Y-141242282D01*
X195031844Y-141242279D01*
X194948488Y-141186582D01*
X198425001Y-141186582D01*
X198431408Y-141257102D01*
X198431409Y-141257107D01*
X198481981Y-141419396D01*
X198569927Y-141564877D01*
X198690122Y-141685072D01*
X198835600Y-141773017D01*
X198937834Y-141804873D01*
X199075000Y-141799949D01*
X199075000Y-141105000D01*
X198425001Y-141105000D01*
X198425001Y-141186582D01*
X194948488Y-141186582D01*
X194872070Y-141135521D01*
X194872068Y-141135520D01*
X194694547Y-141061989D01*
X194694535Y-141061986D01*
X194506081Y-141024500D01*
X194506078Y-141024500D01*
X194313922Y-141024500D01*
X194313919Y-141024500D01*
X194125464Y-141061986D01*
X194125452Y-141061989D01*
X193947931Y-141135520D01*
X193947929Y-141135521D01*
X193788155Y-141242279D01*
X193788151Y-141242282D01*
X193652282Y-141378151D01*
X193652279Y-141378155D01*
X193545521Y-141537929D01*
X193545520Y-141537931D01*
X193471989Y-141715452D01*
X193471986Y-141715464D01*
X193434500Y-141903917D01*
X193434500Y-142096082D01*
X193471986Y-142284535D01*
X193471988Y-142284543D01*
X193525121Y-142412819D01*
X193538272Y-142444567D01*
X193545741Y-142514037D01*
X193514466Y-142576516D01*
X193511392Y-142579701D01*
X191752914Y-144338181D01*
X191691591Y-144371666D01*
X191665233Y-144374500D01*
X190113768Y-144374500D01*
X190092523Y-144368261D01*
X190070438Y-144366683D01*
X190059653Y-144358609D01*
X190046729Y-144354815D01*
X190032230Y-144338082D01*
X190014503Y-144324813D01*
X190009794Y-144312190D01*
X190000974Y-144302011D01*
X189997823Y-144280097D01*
X189990084Y-144259350D01*
X189992947Y-144246186D01*
X189991030Y-144232853D01*
X190000228Y-144212712D01*
X190004934Y-144191076D01*
X190018204Y-144173348D01*
X190020055Y-144169297D01*
X190026070Y-144162835D01*
X190061170Y-144127736D01*
X190061170Y-144127734D01*
X191290298Y-142898605D01*
X191351619Y-142865122D01*
X191421311Y-142870106D01*
X191425429Y-142871727D01*
X191562488Y-142928498D01*
X191585457Y-142938012D01*
X191773912Y-142975498D01*
X191773917Y-142975499D01*
X191773920Y-142975500D01*
X191773922Y-142975500D01*
X191966080Y-142975500D01*
X191966081Y-142975499D01*
X192154543Y-142938012D01*
X192332073Y-142864477D01*
X192491845Y-142757720D01*
X192627720Y-142621845D01*
X192734477Y-142462073D01*
X192808012Y-142284543D01*
X192845500Y-142096078D01*
X192845500Y-141903922D01*
X192845500Y-141903919D01*
X192845499Y-141903917D01*
X192831007Y-141831061D01*
X192808012Y-141715457D01*
X192795396Y-141685000D01*
X192734479Y-141537931D01*
X192734478Y-141537929D01*
X192710478Y-141502011D01*
X192627720Y-141378155D01*
X192627717Y-141378151D01*
X192491848Y-141242282D01*
X192491844Y-141242279D01*
X192332070Y-141135521D01*
X192332068Y-141135520D01*
X192154547Y-141061989D01*
X192154535Y-141061986D01*
X191966081Y-141024500D01*
X191966078Y-141024500D01*
X191773922Y-141024500D01*
X191773919Y-141024500D01*
X191585464Y-141061986D01*
X191585452Y-141061989D01*
X191407931Y-141135520D01*
X191407929Y-141135521D01*
X191248155Y-141242279D01*
X191248151Y-141242282D01*
X191112282Y-141378151D01*
X191112279Y-141378155D01*
X191005521Y-141537929D01*
X191005520Y-141537931D01*
X190931989Y-141715452D01*
X190931986Y-141715464D01*
X190894500Y-141903917D01*
X190894500Y-142096082D01*
X190931986Y-142284535D01*
X190931988Y-142284543D01*
X190985121Y-142412819D01*
X190998272Y-142444567D01*
X191005741Y-142514037D01*
X190974466Y-142576516D01*
X190971392Y-142579701D01*
X189812914Y-143738181D01*
X189751591Y-143771666D01*
X189725233Y-143774500D01*
X188521543Y-143774500D01*
X188454504Y-143754815D01*
X188433862Y-143738181D01*
X188415214Y-143719533D01*
X188415212Y-143719531D01*
X188415209Y-143719529D01*
X188415205Y-143719526D01*
X188335293Y-143673388D01*
X188335292Y-143673387D01*
X188259001Y-143652945D01*
X188199341Y-143616579D01*
X188168812Y-143553732D01*
X188177107Y-143484357D01*
X188203411Y-143445492D01*
X188750298Y-142898605D01*
X188811619Y-142865122D01*
X188881311Y-142870106D01*
X188885429Y-142871727D01*
X189022488Y-142928498D01*
X189045457Y-142938012D01*
X189233912Y-142975498D01*
X189233917Y-142975499D01*
X189233920Y-142975500D01*
X189233922Y-142975500D01*
X189426080Y-142975500D01*
X189426081Y-142975499D01*
X189614543Y-142938012D01*
X189792073Y-142864477D01*
X189951845Y-142757720D01*
X190087720Y-142621845D01*
X190194477Y-142462073D01*
X190268012Y-142284543D01*
X190305500Y-142096078D01*
X190305500Y-141903922D01*
X190305500Y-141903919D01*
X190305499Y-141903917D01*
X190291007Y-141831061D01*
X190268012Y-141715457D01*
X190255396Y-141685000D01*
X190194479Y-141537931D01*
X190194478Y-141537929D01*
X190170478Y-141502011D01*
X190087720Y-141378155D01*
X190087717Y-141378151D01*
X189951848Y-141242282D01*
X189951844Y-141242279D01*
X189792070Y-141135521D01*
X189792068Y-141135520D01*
X189614547Y-141061989D01*
X189614535Y-141061986D01*
X189426081Y-141024500D01*
X189426078Y-141024500D01*
X189233922Y-141024500D01*
X189233919Y-141024500D01*
X189045464Y-141061986D01*
X189045452Y-141061989D01*
X188885431Y-141128272D01*
X188815962Y-141135741D01*
X188753483Y-141104466D01*
X188750298Y-141101392D01*
X188257202Y-140608296D01*
X188172333Y-140523427D01*
X198425000Y-140523427D01*
X198425000Y-140605000D01*
X199075000Y-140605000D01*
X199075000Y-139880000D01*
X199074999Y-139879999D01*
X199068436Y-139880000D01*
X199068417Y-139880001D01*
X198997897Y-139886408D01*
X198997892Y-139886409D01*
X198835603Y-139936981D01*
X198690122Y-140024927D01*
X198569927Y-140145122D01*
X198481980Y-140290604D01*
X198431409Y-140452893D01*
X198425000Y-140523427D01*
X188172333Y-140523427D01*
X187588611Y-139939706D01*
X187588610Y-139939705D01*
X187571170Y-139922264D01*
X187507736Y-139858830D01*
X187507735Y-139858829D01*
X187483457Y-139848772D01*
X187483457Y-139848771D01*
X187424858Y-139824500D01*
X187424856Y-139824499D01*
X187424855Y-139824499D01*
X187335145Y-139824499D01*
X187320711Y-139824499D01*
X187320703Y-139824500D01*
X182776499Y-139824500D01*
X182709460Y-139804815D01*
X182663705Y-139752011D01*
X182652499Y-139700500D01*
X182652499Y-138837641D01*
X182652498Y-138837633D01*
X182645220Y-138801034D01*
X182645218Y-138801031D01*
X182617481Y-138759519D01*
X182575968Y-138731781D01*
X182575967Y-138731780D01*
X182575966Y-138731780D01*
X182539366Y-138724500D01*
X181829933Y-138724500D01*
X181762894Y-138704815D01*
X181717139Y-138652011D01*
X181713751Y-138643832D01*
X181700355Y-138607915D01*
X181700350Y-138607906D01*
X181614190Y-138492812D01*
X181614187Y-138492809D01*
X181499093Y-138406649D01*
X181499086Y-138406645D01*
X181364379Y-138356403D01*
X181364372Y-138356401D01*
X181304844Y-138350000D01*
X181137000Y-138350000D01*
X181137000Y-139926000D01*
X181117315Y-139993039D01*
X181064511Y-140038794D01*
X181013000Y-140050000D01*
X180887000Y-140050000D01*
X180887000Y-140176000D01*
X180867315Y-140243039D01*
X180814511Y-140288794D01*
X180763000Y-140300000D01*
X179741000Y-140300000D01*
X179673961Y-140280315D01*
X179628206Y-140227511D01*
X179617000Y-140176000D01*
X179617000Y-140050000D01*
X179491000Y-140050000D01*
X179423961Y-140030315D01*
X179378206Y-139977511D01*
X179367000Y-139926000D01*
X179367000Y-139800000D01*
X179867000Y-139800000D01*
X180637000Y-139800000D01*
X180637000Y-138350000D01*
X180469155Y-138350000D01*
X180409627Y-138356401D01*
X180409619Y-138356403D01*
X180295333Y-138399029D01*
X180225641Y-138404013D01*
X180208667Y-138399029D01*
X180094380Y-138356403D01*
X180094372Y-138356401D01*
X180034844Y-138350000D01*
X179867000Y-138350000D01*
X179867000Y-139800000D01*
X179367000Y-139800000D01*
X179367000Y-138350000D01*
X179199155Y-138350000D01*
X179139627Y-138356401D01*
X179139620Y-138356403D01*
X179004913Y-138406645D01*
X179004906Y-138406649D01*
X178889812Y-138492809D01*
X178889809Y-138492812D01*
X178803650Y-138607905D01*
X178803646Y-138607911D01*
X178790247Y-138643836D01*
X178748375Y-138699769D01*
X178682910Y-138724184D01*
X178674066Y-138724500D01*
X177964641Y-138724500D01*
X177964633Y-138724501D01*
X177928034Y-138731779D01*
X177928031Y-138731781D01*
X177886520Y-138759518D01*
X177886519Y-138759519D01*
X177872650Y-138780275D01*
X177858780Y-138801033D01*
X177851500Y-138837632D01*
X177851500Y-141262358D01*
X177851501Y-141262366D01*
X177858779Y-141298965D01*
X177858781Y-141298968D01*
X177886519Y-141340481D01*
X177896872Y-141347399D01*
X177918608Y-141373409D01*
X177940774Y-141398989D01*
X177940937Y-141400127D01*
X177941676Y-141401011D01*
X177945896Y-141434615D01*
X177950718Y-141468147D01*
X177950239Y-141469194D01*
X177950383Y-141470336D01*
X177935764Y-141500890D01*
X177921693Y-141531703D01*
X177920725Y-141532325D01*
X177920228Y-141533364D01*
X177891407Y-141551166D01*
X177862915Y-141569477D01*
X177861414Y-141569692D01*
X177860784Y-141570082D01*
X177827980Y-141574500D01*
X177596020Y-141574500D01*
X177528981Y-141554815D01*
X177483226Y-141502011D01*
X177473282Y-141432853D01*
X177502307Y-141369297D01*
X177527128Y-141347399D01*
X177532560Y-141343769D01*
X177537481Y-141340481D01*
X177565219Y-141298968D01*
X177572500Y-141262363D01*
X177572499Y-138837638D01*
X177572430Y-138837294D01*
X177565220Y-138801034D01*
X177565218Y-138801031D01*
X177537481Y-138759519D01*
X177495968Y-138731781D01*
X177495967Y-138731780D01*
X177495966Y-138731780D01*
X177459365Y-138724500D01*
X176694641Y-138724500D01*
X176694633Y-138724501D01*
X176658034Y-138731779D01*
X176658031Y-138731781D01*
X176616520Y-138759518D01*
X176616519Y-138759519D01*
X176602650Y-138780275D01*
X176588780Y-138801033D01*
X176581500Y-138837632D01*
X176581500Y-141262358D01*
X176581501Y-141262366D01*
X176588779Y-141298965D01*
X176588781Y-141298968D01*
X176616519Y-141340481D01*
X176626872Y-141347399D01*
X176671676Y-141401011D01*
X176680383Y-141470336D01*
X176650228Y-141533364D01*
X176590784Y-141570082D01*
X176557980Y-141574500D01*
X176355145Y-141574500D01*
X176355143Y-141574500D01*
X176355141Y-141574501D01*
X176272266Y-141608827D01*
X176272264Y-141608829D01*
X176208830Y-141672264D01*
X176208829Y-141672265D01*
X174492074Y-143389021D01*
X172792914Y-145088181D01*
X172731591Y-145121666D01*
X172705233Y-145124500D01*
X171493766Y-145124500D01*
X171426727Y-145104815D01*
X171380972Y-145052011D01*
X171371028Y-144982853D01*
X171400053Y-144919297D01*
X171406085Y-144912819D01*
X171620431Y-144698474D01*
X171857086Y-144461819D01*
X171918409Y-144428334D01*
X171944767Y-144425500D01*
X172278457Y-144425500D01*
X172345496Y-144445185D01*
X172366138Y-144461819D01*
X172384788Y-144480469D01*
X172384791Y-144480470D01*
X172384794Y-144480473D01*
X172464706Y-144526611D01*
X172464707Y-144526611D01*
X172464712Y-144526614D01*
X172553856Y-144550500D01*
X172553858Y-144550500D01*
X172646142Y-144550500D01*
X172646144Y-144550500D01*
X172735288Y-144526614D01*
X172815212Y-144480469D01*
X172880469Y-144415212D01*
X172926614Y-144335288D01*
X172950500Y-144246144D01*
X172950500Y-144153856D01*
X172926614Y-144064712D01*
X172894350Y-144008830D01*
X172880473Y-143984794D01*
X172880470Y-143984791D01*
X172880469Y-143984788D01*
X172815212Y-143919531D01*
X172815209Y-143919529D01*
X172815205Y-143919526D01*
X172735293Y-143873388D01*
X172735290Y-143873387D01*
X172735289Y-143873386D01*
X172735288Y-143873386D01*
X172646144Y-143849500D01*
X172553856Y-143849500D01*
X172464712Y-143873386D01*
X172464711Y-143873386D01*
X172464709Y-143873387D01*
X172464706Y-143873388D01*
X172384794Y-143919526D01*
X172384785Y-143919533D01*
X172366138Y-143938181D01*
X172304815Y-143971666D01*
X172278457Y-143974500D01*
X171844857Y-143974500D01*
X171844855Y-143974499D01*
X171755146Y-143974499D01*
X171730307Y-143984788D01*
X171714086Y-143991506D01*
X171714084Y-143991507D01*
X171672264Y-144008829D01*
X171608831Y-144072262D01*
X171608830Y-144072264D01*
X171608829Y-144072265D01*
X171575551Y-144105543D01*
X171546554Y-144134540D01*
X171485230Y-144168024D01*
X171415539Y-144163039D01*
X171359605Y-144121168D01*
X171342691Y-144090191D01*
X171293354Y-143957913D01*
X171293350Y-143957906D01*
X171255211Y-143906959D01*
X171230793Y-143841495D01*
X171245644Y-143773222D01*
X171295049Y-143723816D01*
X171307026Y-143718086D01*
X171323677Y-143711189D01*
X171323684Y-143711185D01*
X171487462Y-143601751D01*
X171487466Y-143601748D01*
X171626748Y-143462466D01*
X171626751Y-143462462D01*
X171736185Y-143298684D01*
X171736192Y-143298671D01*
X171811569Y-143116692D01*
X171811569Y-143116690D01*
X171819862Y-143075000D01*
X170899728Y-143075000D01*
X170991614Y-143036940D01*
X171061940Y-142966614D01*
X171100000Y-142874728D01*
X171100000Y-142775272D01*
X171061940Y-142683386D01*
X170991614Y-142613060D01*
X170899728Y-142575000D01*
X171819862Y-142575000D01*
X171811569Y-142533309D01*
X171811569Y-142533307D01*
X171736192Y-142351328D01*
X171736185Y-142351315D01*
X171626751Y-142187537D01*
X171626748Y-142187533D01*
X171487466Y-142048251D01*
X171487462Y-142048248D01*
X171323684Y-141938814D01*
X171323671Y-141938807D01*
X171141693Y-141863430D01*
X171141681Y-141863427D01*
X170948495Y-141825000D01*
X170350000Y-141825000D01*
X170350000Y-142575000D01*
X169850000Y-142575000D01*
X169850000Y-141825000D01*
X169251504Y-141825000D01*
X169058318Y-141863427D01*
X169058306Y-141863430D01*
X168876328Y-141938807D01*
X168876315Y-141938814D01*
X168712537Y-142048248D01*
X168712533Y-142048251D01*
X168573251Y-142187533D01*
X168573248Y-142187537D01*
X168463814Y-142351315D01*
X168463807Y-142351328D01*
X168388430Y-142533306D01*
X168388427Y-142533318D01*
X168360207Y-142675191D01*
X168327822Y-142737102D01*
X168267107Y-142771676D01*
X168238590Y-142775000D01*
X167924500Y-142775000D01*
X167857461Y-142755315D01*
X167811706Y-142702511D01*
X167800500Y-142651000D01*
X167800500Y-140705513D01*
X172199500Y-140705513D01*
X172199500Y-140894486D01*
X172229059Y-141081118D01*
X172287454Y-141260836D01*
X172368245Y-141419395D01*
X172373240Y-141429199D01*
X172484310Y-141582073D01*
X172617927Y-141715690D01*
X172770801Y-141826760D01*
X172842764Y-141863427D01*
X172939163Y-141912545D01*
X172939165Y-141912545D01*
X172939168Y-141912547D01*
X173020009Y-141938814D01*
X173118881Y-141970940D01*
X173305514Y-142000500D01*
X173305519Y-142000500D01*
X173494486Y-142000500D01*
X173681118Y-141970940D01*
X173860832Y-141912547D01*
X174029199Y-141826760D01*
X174182073Y-141715690D01*
X174315690Y-141582073D01*
X174426760Y-141429199D01*
X174512547Y-141260832D01*
X174570940Y-141081118D01*
X174578754Y-141031780D01*
X174600500Y-140894486D01*
X174600500Y-140705513D01*
X174570940Y-140518881D01*
X174512545Y-140339163D01*
X174426759Y-140170800D01*
X174408103Y-140145122D01*
X174315690Y-140017927D01*
X174182073Y-139884310D01*
X174029199Y-139773240D01*
X173987535Y-139752011D01*
X173860836Y-139687454D01*
X173681118Y-139629059D01*
X173494486Y-139599500D01*
X173494481Y-139599500D01*
X173305519Y-139599500D01*
X173305514Y-139599500D01*
X173118881Y-139629059D01*
X172939163Y-139687454D01*
X172770800Y-139773240D01*
X172700249Y-139824499D01*
X172617927Y-139884310D01*
X172617925Y-139884312D01*
X172617924Y-139884312D01*
X172484312Y-140017924D01*
X172484312Y-140017925D01*
X172484310Y-140017927D01*
X172436610Y-140083579D01*
X172373240Y-140170800D01*
X172287454Y-140339163D01*
X172229059Y-140518881D01*
X172199500Y-140705513D01*
X167800500Y-140705513D01*
X167800500Y-138562770D01*
X167801375Y-138562770D01*
X167800890Y-138546929D01*
X167808945Y-138475456D01*
X167815124Y-138448392D01*
X167815126Y-138448386D01*
X167850238Y-138348048D01*
X167862280Y-138323043D01*
X167918845Y-138233022D01*
X167936150Y-138211323D01*
X168011323Y-138136150D01*
X168033022Y-138118845D01*
X168123043Y-138062280D01*
X168148048Y-138050238D01*
X168248394Y-138015123D01*
X168275460Y-138008945D01*
X168356039Y-137999863D01*
X168388059Y-137996255D01*
X168401946Y-137995475D01*
X205673071Y-137995475D01*
X205693039Y-137995475D01*
X205706922Y-137996255D01*
G37*
%TD.AperFunction*%
%TA.AperFunction,Conductor*%
G36*
X173213039Y-149095185D02*
G01*
X173258794Y-149147989D01*
X173270000Y-149199500D01*
X173270000Y-149850000D01*
X174186988Y-149850000D01*
X174154075Y-149907007D01*
X174120000Y-150034174D01*
X174120000Y-150165826D01*
X174154075Y-150292993D01*
X174186988Y-150350000D01*
X173270000Y-150350000D01*
X173270000Y-150997844D01*
X173276401Y-151057372D01*
X173276403Y-151057379D01*
X173326645Y-151192086D01*
X173326649Y-151192093D01*
X173412809Y-151307187D01*
X173412812Y-151307190D01*
X173527906Y-151393350D01*
X173527913Y-151393354D01*
X173662620Y-151443596D01*
X173662627Y-151443598D01*
X173722155Y-151449999D01*
X173722172Y-151450000D01*
X174370000Y-151450000D01*
X174370000Y-150533012D01*
X174427007Y-150565925D01*
X174554174Y-150600000D01*
X174685826Y-150600000D01*
X174812993Y-150565925D01*
X174870000Y-150533012D01*
X174870000Y-151450000D01*
X175191733Y-151450000D01*
X175258772Y-151469685D01*
X175304527Y-151522489D01*
X175314471Y-151591647D01*
X175285446Y-151655203D01*
X175279414Y-151661681D01*
X174802914Y-152138181D01*
X174741591Y-152171666D01*
X174715233Y-152174500D01*
X173344767Y-152174500D01*
X173277728Y-152154815D01*
X173257086Y-152138181D01*
X172261819Y-151142914D01*
X172228334Y-151081591D01*
X172225500Y-151055233D01*
X172225500Y-150259297D01*
X172225501Y-150259288D01*
X172225501Y-150155147D01*
X172225501Y-150155146D01*
X172191170Y-150072265D01*
X172191170Y-150072264D01*
X172127736Y-150008830D01*
X172127734Y-150008829D01*
X171406086Y-149287181D01*
X171372601Y-149225858D01*
X171377585Y-149156166D01*
X171419457Y-149100233D01*
X171484921Y-149075816D01*
X171493767Y-149075500D01*
X173146000Y-149075500D01*
X173213039Y-149095185D01*
G37*
%TD.AperFunction*%
%TA.AperFunction,Conductor*%
G36*
X170243039Y-149719685D02*
G01*
X170288794Y-149772489D01*
X170300000Y-149824000D01*
X170300000Y-149876000D01*
X170280315Y-149943039D01*
X170227511Y-149988794D01*
X170176000Y-150000000D01*
X168624000Y-150000000D01*
X168556961Y-149980315D01*
X168511206Y-149927511D01*
X168500000Y-149876000D01*
X168500000Y-149824000D01*
X168519685Y-149756961D01*
X168572489Y-149711206D01*
X168624000Y-149700000D01*
X170176000Y-149700000D01*
X170243039Y-149719685D01*
G37*
%TD.AperFunction*%
%TA.AperFunction,Conductor*%
G36*
X200688773Y-143195347D02*
G01*
X200736384Y-143246484D01*
X200749500Y-143301989D01*
X200749500Y-145580233D01*
X200729815Y-145647272D01*
X200713181Y-145667914D01*
X200468863Y-145912231D01*
X200407540Y-145945716D01*
X200337848Y-145940732D01*
X200281915Y-145898860D01*
X200273796Y-145886552D01*
X200266194Y-145873386D01*
X200262270Y-145866589D01*
X200197013Y-145801332D01*
X200197010Y-145801330D01*
X200197006Y-145801327D01*
X200117094Y-145755189D01*
X200117091Y-145755188D01*
X200117090Y-145755187D01*
X200117089Y-145755187D01*
X200027945Y-145731301D01*
X199935657Y-145731301D01*
X199846513Y-145755187D01*
X199846512Y-145755187D01*
X199846510Y-145755188D01*
X199846507Y-145755189D01*
X199816497Y-145772515D01*
X199748596Y-145788986D01*
X199682570Y-145766133D01*
X199639380Y-145711211D01*
X199630499Y-145665131D01*
X199630499Y-145412638D01*
X199623219Y-145376032D01*
X199623218Y-145376031D01*
X199621737Y-145372455D01*
X199618888Y-145345965D01*
X199612393Y-145320123D01*
X199614887Y-145308756D01*
X199614267Y-145302986D01*
X199618786Y-145285413D01*
X199622054Y-145275710D01*
X199623219Y-145273968D01*
X199624051Y-145269783D01*
X199626599Y-145262221D01*
X199642231Y-145239880D01*
X199654870Y-145215713D01*
X199662759Y-145210542D01*
X199666656Y-145204974D01*
X199678940Y-145199938D01*
X199700778Y-145185626D01*
X199747084Y-145168355D01*
X199747093Y-145168350D01*
X199862187Y-145082190D01*
X199862190Y-145082187D01*
X199948350Y-144967093D01*
X199948354Y-144967086D01*
X199998596Y-144832379D01*
X199998598Y-144832372D01*
X200004999Y-144772844D01*
X200005000Y-144772827D01*
X200005000Y-144725000D01*
X199279000Y-144725000D01*
X199270314Y-144722449D01*
X199261353Y-144723738D01*
X199237312Y-144712759D01*
X199211961Y-144705315D01*
X199206033Y-144698474D01*
X199197797Y-144694713D01*
X199183507Y-144672478D01*
X199166206Y-144652511D01*
X199163918Y-144641996D01*
X199160023Y-144635935D01*
X199155000Y-144601000D01*
X199155000Y-144549000D01*
X199174685Y-144481961D01*
X199227489Y-144436206D01*
X199279000Y-144425000D01*
X200005000Y-144425000D01*
X200005000Y-144377172D01*
X200004999Y-144377155D01*
X199998598Y-144317627D01*
X199998596Y-144317620D01*
X199948354Y-144182913D01*
X199948350Y-144182906D01*
X199862191Y-144067813D01*
X199826846Y-144041354D01*
X199784975Y-143985420D01*
X199779991Y-143915728D01*
X199813476Y-143854405D01*
X199874799Y-143820921D01*
X199876966Y-143820469D01*
X199927521Y-143810413D01*
X200091307Y-143742571D01*
X200091316Y-143742566D01*
X200238716Y-143644076D01*
X200238720Y-143644073D01*
X200364073Y-143518720D01*
X200364076Y-143518716D01*
X200462566Y-143371316D01*
X200462573Y-143371303D01*
X200510939Y-143254537D01*
X200554780Y-143200133D01*
X200621074Y-143178068D01*
X200688773Y-143195347D01*
G37*
%TD.AperFunction*%
%TA.AperFunction,Conductor*%
G36*
X170243039Y-144219685D02*
G01*
X170288794Y-144272489D01*
X170300000Y-144324000D01*
X170300000Y-144376000D01*
X170280315Y-144443039D01*
X170227511Y-144488794D01*
X170176000Y-144500000D01*
X168624000Y-144500000D01*
X168556961Y-144480315D01*
X168511206Y-144427511D01*
X168500000Y-144376000D01*
X168500000Y-144324000D01*
X168519685Y-144256961D01*
X168572489Y-144211206D01*
X168624000Y-144200000D01*
X170176000Y-144200000D01*
X170243039Y-144219685D01*
G37*
%TD.AperFunction*%
%TD*%
M02*
